<?xml version="1.0" encoding="utf-8" standalone="no"?>
<!DOCTYPE svg PUBLIC "-//W3C//DTD SVG 1.1//EN"
  "http://www.w3.org/Graphics/SVG/1.1/DTD/svg11.dtd">
<!-- Created with matplotlib (https://matplotlib.org/) -->
<svg height="288pt" version="1.1" viewBox="0 0 432 288" width="432pt" xmlns="http://www.w3.org/2000/svg" xmlns:xlink="http://www.w3.org/1999/xlink">
 <defs>
  <style type="text/css">
*{stroke-linecap:butt;stroke-linejoin:round;}
  </style>
 </defs>
 <g id="figure_1">
  <g id="patch_1">
   <path d="M 0 288 
L 432 288 
L 432 0 
L 0 0 
z
" style="fill:#ffffff;"/>
  </g>
  <g id="axes_1">
   <g id="patch_2">
    <path d="M 120.508141 227.7 
L 421.2 227.7 
L 421.2 21.249734 
L 120.508141 21.249734 
z
" style="fill:#ffffff;"/>
   </g>
   <g id="matplotlib.axis_1">
    <g id="xtick_1">
     <g id="line2d_1">
      <defs>
       <path d="M 0 0 
L 0 9 
" id="m6b7802c6eb" style="stroke:#262626;stroke-width:1.875;"/>
      </defs>
      <g>
       <use style="fill:#262626;stroke:#262626;stroke-width:1.875;" x="134.175953" xlink:href="#m6b7802c6eb" y="227.7"/>
      </g>
     </g>
     <g id="text_1">
      <!-- 0 -->
      <defs>
       <path d="M 4.15625 35.296875 
Q 4.15625 48 6.765625 55.734375 
Q 9.375 63.484375 14.515625 67.671875 
Q 19.671875 71.875 27.484375 71.875 
Q 33.25 71.875 37.59375 69.546875 
Q 41.9375 67.234375 44.765625 62.859375 
Q 47.609375 58.5 49.21875 52.21875 
Q 50.828125 45.953125 50.828125 35.296875 
Q 50.828125 22.703125 48.234375 14.96875 
Q 45.65625 7.234375 40.5 3 
Q 35.359375 -1.21875 27.484375 -1.21875 
Q 17.140625 -1.21875 11.234375 6.203125 
Q 4.15625 15.140625 4.15625 35.296875 
z
M 13.1875 35.296875 
Q 13.1875 17.671875 17.3125 11.828125 
Q 21.4375 6 27.484375 6 
Q 33.546875 6 37.671875 11.859375 
Q 41.796875 17.71875 41.796875 35.296875 
Q 41.796875 52.984375 37.671875 58.78125 
Q 33.546875 64.59375 27.390625 64.59375 
Q 21.34375 64.59375 17.71875 59.46875 
Q 13.1875 52.9375 13.1875 35.296875 
z
" id="ArialMT-48"/>
      </defs>
      <g style="fill:#262626;" transform="translate(129.588179 252.010391)scale(0.165 -0.165)">
       <use xlink:href="#ArialMT-48"/>
      </g>
     </g>
    </g>
    <g id="xtick_2">
     <g id="line2d_2">
      <g>
       <use style="fill:#262626;stroke:#262626;stroke-width:1.875;" x="188.956761" xlink:href="#m6b7802c6eb" y="227.7"/>
      </g>
     </g>
     <g id="text_2">
      <!-- 100 -->
      <defs>
       <path d="M 37.25 0 
L 28.46875 0 
L 28.46875 56 
Q 25.296875 52.984375 20.140625 49.953125 
Q 14.984375 46.921875 10.890625 45.40625 
L 10.890625 53.90625 
Q 18.265625 57.375 23.78125 62.296875 
Q 29.296875 67.234375 31.59375 71.875 
L 37.25 71.875 
z
" id="ArialMT-49"/>
      </defs>
      <g style="fill:#262626;" transform="translate(175.193441 252.010391)scale(0.165 -0.165)">
       <use xlink:href="#ArialMT-49"/>
       <use x="55.615234" xlink:href="#ArialMT-48"/>
       <use x="111.230469" xlink:href="#ArialMT-48"/>
      </g>
     </g>
    </g>
    <g id="xtick_3">
     <g id="line2d_3">
      <g>
       <use style="fill:#262626;stroke:#262626;stroke-width:1.875;" x="243.73757" xlink:href="#m6b7802c6eb" y="227.7"/>
      </g>
     </g>
     <g id="text_3">
      <!-- 200 -->
      <defs>
       <path d="M 50.34375 8.453125 
L 50.34375 0 
L 3.03125 0 
Q 2.9375 3.171875 4.046875 6.109375 
Q 5.859375 10.9375 9.828125 15.625 
Q 13.8125 20.3125 21.34375 26.46875 
Q 33.015625 36.03125 37.109375 41.625 
Q 41.21875 47.21875 41.21875 52.203125 
Q 41.21875 57.421875 37.46875 61 
Q 33.734375 64.59375 27.734375 64.59375 
Q 21.390625 64.59375 17.578125 60.78125 
Q 13.765625 56.984375 13.71875 50.25 
L 4.6875 51.171875 
Q 5.609375 61.28125 11.65625 66.578125 
Q 17.71875 71.875 27.9375 71.875 
Q 38.234375 71.875 44.234375 66.15625 
Q 50.25 60.453125 50.25 52 
Q 50.25 47.703125 48.484375 43.546875 
Q 46.734375 39.40625 42.65625 34.8125 
Q 38.578125 30.21875 29.109375 22.21875 
Q 21.1875 15.578125 18.9375 13.203125 
Q 16.703125 10.84375 15.234375 8.453125 
z
" id="ArialMT-50"/>
      </defs>
      <g style="fill:#262626;" transform="translate(229.97425 252.010391)scale(0.165 -0.165)">
       <use xlink:href="#ArialMT-50"/>
       <use x="55.615234" xlink:href="#ArialMT-48"/>
       <use x="111.230469" xlink:href="#ArialMT-48"/>
      </g>
     </g>
    </g>
    <g id="xtick_4">
     <g id="line2d_4">
      <g>
       <use style="fill:#262626;stroke:#262626;stroke-width:1.875;" x="298.518379" xlink:href="#m6b7802c6eb" y="227.7"/>
      </g>
     </g>
     <g id="text_4">
      <!-- 300 -->
      <defs>
       <path d="M 4.203125 18.890625 
L 12.984375 20.0625 
Q 14.5 12.59375 18.140625 9.296875 
Q 21.78125 6 27 6 
Q 33.203125 6 37.46875 10.296875 
Q 41.75 14.59375 41.75 20.953125 
Q 41.75 27 37.796875 30.921875 
Q 33.84375 34.859375 27.734375 34.859375 
Q 25.25 34.859375 21.53125 33.890625 
L 22.515625 41.609375 
Q 23.390625 41.5 23.921875 41.5 
Q 29.546875 41.5 34.03125 44.421875 
Q 38.53125 47.359375 38.53125 53.46875 
Q 38.53125 58.296875 35.25 61.46875 
Q 31.984375 64.65625 26.8125 64.65625 
Q 21.6875 64.65625 18.265625 61.421875 
Q 14.84375 58.203125 13.875 51.765625 
L 5.078125 53.328125 
Q 6.6875 62.15625 12.390625 67.015625 
Q 18.109375 71.875 26.609375 71.875 
Q 32.46875 71.875 37.390625 69.359375 
Q 42.328125 66.84375 44.9375 62.5 
Q 47.5625 58.15625 47.5625 53.265625 
Q 47.5625 48.640625 45.0625 44.828125 
Q 42.578125 41.015625 37.703125 38.765625 
Q 44.046875 37.3125 47.5625 32.6875 
Q 51.078125 28.078125 51.078125 21.140625 
Q 51.078125 11.765625 44.234375 5.25 
Q 37.40625 -1.265625 26.953125 -1.265625 
Q 17.53125 -1.265625 11.296875 4.34375 
Q 5.078125 9.96875 4.203125 18.890625 
z
" id="ArialMT-51"/>
      </defs>
      <g style="fill:#262626;" transform="translate(284.755059 252.010391)scale(0.165 -0.165)">
       <use xlink:href="#ArialMT-51"/>
       <use x="55.615234" xlink:href="#ArialMT-48"/>
       <use x="111.230469" xlink:href="#ArialMT-48"/>
      </g>
     </g>
    </g>
    <g id="xtick_5">
     <g id="line2d_5">
      <g>
       <use style="fill:#262626;stroke:#262626;stroke-width:1.875;" x="353.299188" xlink:href="#m6b7802c6eb" y="227.7"/>
      </g>
     </g>
     <g id="text_5">
      <!-- 400 -->
      <defs>
       <path d="M 32.328125 0 
L 32.328125 17.140625 
L 1.265625 17.140625 
L 1.265625 25.203125 
L 33.9375 71.578125 
L 41.109375 71.578125 
L 41.109375 25.203125 
L 50.78125 25.203125 
L 50.78125 17.140625 
L 41.109375 17.140625 
L 41.109375 0 
z
M 32.328125 25.203125 
L 32.328125 57.46875 
L 9.90625 25.203125 
z
" id="ArialMT-52"/>
      </defs>
      <g style="fill:#262626;" transform="translate(339.535867 252.010391)scale(0.165 -0.165)">
       <use xlink:href="#ArialMT-52"/>
       <use x="55.615234" xlink:href="#ArialMT-48"/>
       <use x="111.230469" xlink:href="#ArialMT-48"/>
      </g>
     </g>
    </g>
    <g id="xtick_6">
     <g id="line2d_6">
      <g>
       <use style="fill:#262626;stroke:#262626;stroke-width:1.875;" x="408.079996" xlink:href="#m6b7802c6eb" y="227.7"/>
      </g>
     </g>
     <g id="text_6">
      <!-- 500 -->
      <defs>
       <path d="M 4.15625 18.75 
L 13.375 19.53125 
Q 14.40625 12.796875 18.140625 9.390625 
Q 21.875 6 27.15625 6 
Q 33.5 6 37.890625 10.78125 
Q 42.28125 15.578125 42.28125 23.484375 
Q 42.28125 31 38.0625 35.34375 
Q 33.84375 39.703125 27 39.703125 
Q 22.75 39.703125 19.328125 37.765625 
Q 15.921875 35.84375 13.96875 32.765625 
L 5.71875 33.84375 
L 12.640625 70.609375 
L 48.25 70.609375 
L 48.25 62.203125 
L 19.671875 62.203125 
L 15.828125 42.96875 
Q 22.265625 47.46875 29.34375 47.46875 
Q 38.71875 47.46875 45.15625 40.96875 
Q 51.609375 34.46875 51.609375 24.265625 
Q 51.609375 14.546875 45.953125 7.46875 
Q 39.0625 -1.21875 27.15625 -1.21875 
Q 17.390625 -1.21875 11.203125 4.25 
Q 5.03125 9.71875 4.15625 18.75 
z
" id="ArialMT-53"/>
      </defs>
      <g style="fill:#262626;" transform="translate(394.316676 252.010391)scale(0.165 -0.165)">
       <use xlink:href="#ArialMT-53"/>
       <use x="55.615234" xlink:href="#ArialMT-48"/>
       <use x="111.230469" xlink:href="#ArialMT-48"/>
      </g>
     </g>
    </g>
    <g id="text_7">
     <!-- Training Epoch -->
     <defs>
      <path d="M 25.921875 0 
L 25.921875 63.140625 
L 2.34375 63.140625 
L 2.34375 71.578125 
L 59.078125 71.578125 
L 59.078125 63.140625 
L 35.40625 63.140625 
L 35.40625 0 
z
" id="ArialMT-84"/>
      <path d="M 6.5 0 
L 6.5 51.859375 
L 14.40625 51.859375 
L 14.40625 44 
Q 17.4375 49.515625 20 51.265625 
Q 22.5625 53.03125 25.640625 53.03125 
Q 30.078125 53.03125 34.671875 50.203125 
L 31.640625 42.046875 
Q 28.421875 43.953125 25.203125 43.953125 
Q 22.3125 43.953125 20.015625 42.21875 
Q 17.71875 40.484375 16.75 37.40625 
Q 15.28125 32.71875 15.28125 27.15625 
L 15.28125 0 
z
" id="ArialMT-114"/>
      <path d="M 40.4375 6.390625 
Q 35.546875 2.25 31.03125 0.53125 
Q 26.515625 -1.171875 21.34375 -1.171875 
Q 12.796875 -1.171875 8.203125 3 
Q 3.609375 7.171875 3.609375 13.671875 
Q 3.609375 17.484375 5.34375 20.625 
Q 7.078125 23.78125 9.890625 25.6875 
Q 12.703125 27.59375 16.21875 28.5625 
Q 18.796875 29.25 24.03125 29.890625 
Q 34.671875 31.15625 39.703125 32.90625 
Q 39.75 34.71875 39.75 35.203125 
Q 39.75 40.578125 37.25 42.78125 
Q 33.890625 45.75 27.25 45.75 
Q 21.046875 45.75 18.09375 43.578125 
Q 15.140625 41.40625 13.71875 35.890625 
L 5.125 37.0625 
Q 6.296875 42.578125 8.984375 45.96875 
Q 11.671875 49.359375 16.75 51.1875 
Q 21.828125 53.03125 28.515625 53.03125 
Q 35.15625 53.03125 39.296875 51.46875 
Q 43.453125 49.90625 45.40625 47.53125 
Q 47.359375 45.171875 48.140625 41.546875 
Q 48.578125 39.3125 48.578125 33.453125 
L 48.578125 21.734375 
Q 48.578125 9.46875 49.140625 6.21875 
Q 49.703125 2.984375 51.375 0 
L 42.1875 0 
Q 40.828125 2.734375 40.4375 6.390625 
z
M 39.703125 26.03125 
Q 34.90625 24.078125 25.34375 22.703125 
Q 19.921875 21.921875 17.671875 20.9375 
Q 15.4375 19.96875 14.203125 18.09375 
Q 12.984375 16.21875 12.984375 13.921875 
Q 12.984375 10.40625 15.640625 8.0625 
Q 18.3125 5.71875 23.4375 5.71875 
Q 28.515625 5.71875 32.46875 7.9375 
Q 36.421875 10.15625 38.28125 14.015625 
Q 39.703125 17 39.703125 22.796875 
z
" id="ArialMT-97"/>
      <path d="M 6.640625 61.46875 
L 6.640625 71.578125 
L 15.4375 71.578125 
L 15.4375 61.46875 
z
M 6.640625 0 
L 6.640625 51.859375 
L 15.4375 51.859375 
L 15.4375 0 
z
" id="ArialMT-105"/>
      <path d="M 6.59375 0 
L 6.59375 51.859375 
L 14.5 51.859375 
L 14.5 44.484375 
Q 20.21875 53.03125 31 53.03125 
Q 35.6875 53.03125 39.625 51.34375 
Q 43.5625 49.65625 45.515625 46.921875 
Q 47.46875 44.1875 48.25 40.4375 
Q 48.734375 37.984375 48.734375 31.890625 
L 48.734375 0 
L 39.9375 0 
L 39.9375 31.546875 
Q 39.9375 36.921875 38.90625 39.578125 
Q 37.890625 42.234375 35.28125 43.8125 
Q 32.671875 45.40625 29.15625 45.40625 
Q 23.53125 45.40625 19.453125 41.84375 
Q 15.375 38.28125 15.375 28.328125 
L 15.375 0 
z
" id="ArialMT-110"/>
      <path d="M 4.984375 -4.296875 
L 13.53125 -5.5625 
Q 14.0625 -9.515625 16.5 -11.328125 
Q 19.78125 -13.765625 25.4375 -13.765625 
Q 31.546875 -13.765625 34.859375 -11.328125 
Q 38.1875 -8.890625 39.359375 -4.5 
Q 40.046875 -1.8125 39.984375 6.78125 
Q 34.234375 0 25.640625 0 
Q 14.9375 0 9.078125 7.71875 
Q 3.21875 15.4375 3.21875 26.21875 
Q 3.21875 33.640625 5.90625 39.90625 
Q 8.59375 46.1875 13.6875 49.609375 
Q 18.796875 53.03125 25.6875 53.03125 
Q 34.859375 53.03125 40.828125 45.609375 
L 40.828125 51.859375 
L 48.921875 51.859375 
L 48.921875 7.03125 
Q 48.921875 -5.078125 46.453125 -10.125 
Q 44 -15.1875 38.640625 -18.109375 
Q 33.296875 -21.046875 25.484375 -21.046875 
Q 16.21875 -21.046875 10.5 -16.875 
Q 4.78125 -12.703125 4.984375 -4.296875 
z
M 12.25 26.859375 
Q 12.25 16.65625 16.296875 11.96875 
Q 20.359375 7.28125 26.46875 7.28125 
Q 32.515625 7.28125 36.609375 11.9375 
Q 40.71875 16.609375 40.71875 26.5625 
Q 40.71875 36.078125 36.5 40.90625 
Q 32.28125 45.75 26.3125 45.75 
Q 20.453125 45.75 16.34375 40.984375 
Q 12.25 36.234375 12.25 26.859375 
z
" id="ArialMT-103"/>
      <path id="ArialMT-32"/>
      <path d="M 7.90625 0 
L 7.90625 71.578125 
L 59.671875 71.578125 
L 59.671875 63.140625 
L 17.390625 63.140625 
L 17.390625 41.21875 
L 56.984375 41.21875 
L 56.984375 32.8125 
L 17.390625 32.8125 
L 17.390625 8.453125 
L 61.328125 8.453125 
L 61.328125 0 
z
" id="ArialMT-69"/>
      <path d="M 6.59375 -19.875 
L 6.59375 51.859375 
L 14.59375 51.859375 
L 14.59375 45.125 
Q 17.4375 49.078125 21 51.046875 
Q 24.5625 53.03125 29.640625 53.03125 
Q 36.28125 53.03125 41.359375 49.609375 
Q 46.4375 46.1875 49.015625 39.953125 
Q 51.609375 33.734375 51.609375 26.3125 
Q 51.609375 18.359375 48.75 11.984375 
Q 45.90625 5.609375 40.453125 2.21875 
Q 35.015625 -1.171875 29 -1.171875 
Q 24.609375 -1.171875 21.109375 0.6875 
Q 17.625 2.546875 15.375 5.375 
L 15.375 -19.875 
z
M 14.546875 25.640625 
Q 14.546875 15.625 18.59375 10.84375 
Q 22.65625 6.0625 28.421875 6.0625 
Q 34.28125 6.0625 38.453125 11.015625 
Q 42.625 15.96875 42.625 26.375 
Q 42.625 36.28125 38.546875 41.203125 
Q 34.46875 46.140625 28.8125 46.140625 
Q 23.1875 46.140625 18.859375 40.890625 
Q 14.546875 35.640625 14.546875 25.640625 
z
" id="ArialMT-112"/>
      <path d="M 3.328125 25.921875 
Q 3.328125 40.328125 11.328125 47.265625 
Q 18.015625 53.03125 27.640625 53.03125 
Q 38.328125 53.03125 45.109375 46.015625 
Q 51.90625 39.015625 51.90625 26.65625 
Q 51.90625 16.65625 48.90625 10.90625 
Q 45.90625 5.171875 40.15625 2 
Q 34.421875 -1.171875 27.640625 -1.171875 
Q 16.75 -1.171875 10.03125 5.8125 
Q 3.328125 12.796875 3.328125 25.921875 
z
M 12.359375 25.921875 
Q 12.359375 15.96875 16.703125 11.015625 
Q 21.046875 6.0625 27.640625 6.0625 
Q 34.1875 6.0625 38.53125 11.03125 
Q 42.875 16.015625 42.875 26.21875 
Q 42.875 35.84375 38.5 40.796875 
Q 34.125 45.75 27.640625 45.75 
Q 21.046875 45.75 16.703125 40.8125 
Q 12.359375 35.890625 12.359375 25.921875 
z
" id="ArialMT-111"/>
      <path d="M 40.4375 19 
L 49.078125 17.875 
Q 47.65625 8.9375 41.8125 3.875 
Q 35.984375 -1.171875 27.484375 -1.171875 
Q 16.84375 -1.171875 10.375 5.78125 
Q 3.90625 12.75 3.90625 25.734375 
Q 3.90625 34.125 6.6875 40.421875 
Q 9.46875 46.734375 15.15625 49.875 
Q 20.84375 53.03125 27.546875 53.03125 
Q 35.984375 53.03125 41.359375 48.75 
Q 46.734375 44.484375 48.25 36.625 
L 39.703125 35.296875 
Q 38.484375 40.53125 35.375 43.15625 
Q 32.28125 45.796875 27.875 45.796875 
Q 21.234375 45.796875 17.078125 41.03125 
Q 12.9375 36.28125 12.9375 25.984375 
Q 12.9375 15.53125 16.9375 10.796875 
Q 20.953125 6.0625 27.390625 6.0625 
Q 32.5625 6.0625 36.03125 9.234375 
Q 39.5 12.40625 40.4375 19 
z
" id="ArialMT-99"/>
      <path d="M 6.59375 0 
L 6.59375 71.578125 
L 15.375 71.578125 
L 15.375 45.90625 
Q 21.53125 53.03125 30.90625 53.03125 
Q 36.671875 53.03125 40.921875 50.75 
Q 45.171875 48.484375 47 44.484375 
Q 48.828125 40.484375 48.828125 32.859375 
L 48.828125 0 
L 40.046875 0 
L 40.046875 32.859375 
Q 40.046875 39.453125 37.1875 42.453125 
Q 34.328125 45.453125 29.109375 45.453125 
Q 25.203125 45.453125 21.75 43.421875 
Q 18.3125 41.40625 16.84375 37.9375 
Q 15.375 34.46875 15.375 28.375 
L 15.375 0 
z
" id="ArialMT-104"/>
     </defs>
     <g style="fill:#262626;" transform="translate(210.660946 272.173828)scale(0.18 -0.18)">
      <use xlink:href="#ArialMT-84"/>
      <use x="57.333984" xlink:href="#ArialMT-114"/>
      <use x="90.634766" xlink:href="#ArialMT-97"/>
      <use x="146.25" xlink:href="#ArialMT-105"/>
      <use x="168.466797" xlink:href="#ArialMT-110"/>
      <use x="224.082031" xlink:href="#ArialMT-105"/>
      <use x="246.298828" xlink:href="#ArialMT-110"/>
      <use x="301.914062" xlink:href="#ArialMT-103"/>
      <use x="357.529297" xlink:href="#ArialMT-32"/>
      <use x="385.3125" xlink:href="#ArialMT-69"/>
      <use x="452.011719" xlink:href="#ArialMT-112"/>
      <use x="507.626953" xlink:href="#ArialMT-111"/>
      <use x="563.242188" xlink:href="#ArialMT-99"/>
      <use x="613.242188" xlink:href="#ArialMT-104"/>
     </g>
    </g>
   </g>
   <g id="matplotlib.axis_2">
    <g id="ytick_1">
     <g id="line2d_7">
      <defs>
       <path d="M 0 0 
L -9 0 
" id="m1acd8fabfe" style="stroke:#262626;stroke-width:1.875;"/>
      </defs>
      <g>
       <use style="fill:#262626;stroke:#262626;stroke-width:1.875;" x="120.508141" xlink:href="#m1acd8fabfe" y="124.474867"/>
      </g>
     </g>
     <g id="text_8">
      <!-- $\mathdefault{10^{-1}}$ -->
      <defs>
       <path d="M 52.828125 31.203125 
L 5.5625 31.203125 
L 5.5625 39.40625 
L 52.828125 39.40625 
z
" id="ArialMT-8722"/>
      </defs>
      <g style="fill:#262626;" transform="translate(75.338141 132.98268)scale(0.165 -0.165)">
       <use transform="translate(0 0.99375)" xlink:href="#ArialMT-49"/>
       <use transform="translate(55.615234 0.99375)" xlink:href="#ArialMT-48"/>
       <use transform="translate(112.972813 70.6875)scale(0.7)" xlink:href="#ArialMT-8722"/>
       <use transform="translate(153.851719 70.6875)scale(0.7)" xlink:href="#ArialMT-49"/>
      </g>
     </g>
    </g>
    <g id="ytick_2">
     <g id="line2d_8">
      <defs>
       <path d="M 0 0 
L -6 0 
" id="m0b14006216" style="stroke:#262626;stroke-width:1.5;"/>
      </defs>
      <g>
       <use style="fill:#262626;stroke:#262626;stroke-width:1.5;" x="120.508141" xlink:href="#m0b14006216" y="227.7"/>
      </g>
     </g>
    </g>
    <g id="ytick_3">
     <g id="line2d_9">
      <g>
       <use style="fill:#262626;stroke:#262626;stroke-width:1.5;" x="120.508141" xlink:href="#m0b14006216" y="200.548239"/>
      </g>
     </g>
     <g id="text_9">
      <!-- $\mathdefault{6\times10^{-2}}$ -->
      <defs>
       <path d="M 49.75 54.046875 
L 41.015625 53.375 
Q 39.84375 58.546875 37.703125 60.890625 
Q 34.125 64.65625 28.90625 64.65625 
Q 24.703125 64.65625 21.53125 62.3125 
Q 17.390625 59.28125 14.984375 53.46875 
Q 12.59375 47.65625 12.5 36.921875 
Q 15.671875 41.75 20.265625 44.09375 
Q 24.859375 46.4375 29.890625 46.4375 
Q 38.671875 46.4375 44.84375 39.96875 
Q 51.03125 33.5 51.03125 23.25 
Q 51.03125 16.5 48.125 10.71875 
Q 45.21875 4.9375 40.140625 1.859375 
Q 35.0625 -1.21875 28.609375 -1.21875 
Q 17.625 -1.21875 10.6875 6.859375 
Q 3.765625 14.9375 3.765625 33.5 
Q 3.765625 54.25 11.421875 63.671875 
Q 18.109375 71.875 29.4375 71.875 
Q 37.890625 71.875 43.28125 67.140625 
Q 48.6875 62.40625 49.75 54.046875 
z
M 13.875 23.1875 
Q 13.875 18.65625 15.796875 14.5 
Q 17.71875 10.359375 21.1875 8.171875 
Q 24.65625 6 28.46875 6 
Q 34.03125 6 38.03125 10.484375 
Q 42.046875 14.984375 42.046875 22.703125 
Q 42.046875 30.125 38.078125 34.390625 
Q 34.125 38.671875 28.125 38.671875 
Q 22.171875 38.671875 18.015625 34.390625 
Q 13.875 30.125 13.875 23.1875 
z
" id="ArialMT-54"/>
       <path d="M 7.859375 19.96875 
L 23.25 35.359375 
L 7.90625 50.6875 
L 13.875 56.640625 
L 29.203125 41.3125 
L 44.484375 56.59375 
L 50.34375 50.6875 
L 35.109375 35.40625 
L 50.4375 20.0625 
L 44.484375 14.109375 
L 29.15625 29.4375 
L 13.765625 14.0625 
z
" id="ArialMT-215"/>
      </defs>
      <g style="fill:#262626;" transform="translate(54.018141 209.056051)scale(0.165 -0.165)">
       <use transform="translate(0 0.99375)" xlink:href="#ArialMT-54"/>
       <use transform="translate(72.275391 0.99375)" xlink:href="#ArialMT-215"/>
       <use transform="translate(147.333984 0.99375)" xlink:href="#ArialMT-49"/>
       <use transform="translate(202.949219 0.99375)" xlink:href="#ArialMT-48"/>
       <use transform="translate(260.306797 70.6875)scale(0.7)" xlink:href="#ArialMT-8722"/>
       <use transform="translate(301.185703 70.6875)scale(0.7)" xlink:href="#ArialMT-50"/>
      </g>
     </g>
    </g>
    <g id="ytick_4">
     <g id="line2d_10">
      <g>
       <use style="fill:#262626;stroke:#262626;stroke-width:1.5;" x="120.508141" xlink:href="#m0b14006216" y="177.591751"/>
      </g>
     </g>
    </g>
    <g id="ytick_5">
     <g id="line2d_11">
      <g>
       <use style="fill:#262626;stroke:#262626;stroke-width:1.5;" x="120.508141" xlink:href="#m0b14006216" y="157.705938"/>
      </g>
     </g>
    </g>
    <g id="ytick_6">
     <g id="line2d_12">
      <g>
       <use style="fill:#262626;stroke:#262626;stroke-width:1.5;" x="120.508141" xlink:href="#m0b14006216" y="140.165407"/>
      </g>
     </g>
    </g>
    <g id="ytick_7">
     <g id="line2d_13">
      <g>
       <use style="fill:#262626;stroke:#262626;stroke-width:1.5;" x="120.508141" xlink:href="#m0b14006216" y="21.249734"/>
      </g>
     </g>
     <g id="text_10">
      <!-- $\mathdefault{2\times10^{-1}}$ -->
      <g style="fill:#262626;" transform="translate(54.018141 29.757547)scale(0.165 -0.165)">
       <use transform="translate(0 0.99375)" xlink:href="#ArialMT-50"/>
       <use transform="translate(72.275391 0.99375)" xlink:href="#ArialMT-215"/>
       <use transform="translate(147.333984 0.99375)" xlink:href="#ArialMT-49"/>
       <use transform="translate(202.949219 0.99375)" xlink:href="#ArialMT-48"/>
       <use transform="translate(260.306797 70.6875)scale(0.7)" xlink:href="#ArialMT-8722"/>
       <use transform="translate(301.185703 70.6875)scale(0.7)" xlink:href="#ArialMT-49"/>
      </g>
     </g>
    </g>
    <g id="text_11">
     <!-- Mean Absolute Error -->
     <defs>
      <path d="M 7.421875 0 
L 7.421875 71.578125 
L 21.6875 71.578125 
L 38.625 20.90625 
Q 40.96875 13.8125 42.046875 10.296875 
Q 43.265625 14.203125 45.84375 21.78125 
L 62.984375 71.578125 
L 75.734375 71.578125 
L 75.734375 0 
L 66.609375 0 
L 66.609375 59.90625 
L 45.796875 0 
L 37.25 0 
L 16.546875 60.9375 
L 16.546875 0 
z
" id="ArialMT-77"/>
      <path d="M 42.09375 16.703125 
L 51.171875 15.578125 
Q 49.03125 7.625 43.21875 3.21875 
Q 37.40625 -1.171875 28.375 -1.171875 
Q 17 -1.171875 10.328125 5.828125 
Q 3.65625 12.84375 3.65625 25.484375 
Q 3.65625 38.578125 10.390625 45.796875 
Q 17.140625 53.03125 27.875 53.03125 
Q 38.28125 53.03125 44.875 45.953125 
Q 51.46875 38.875 51.46875 26.03125 
Q 51.46875 25.25 51.421875 23.6875 
L 12.75 23.6875 
Q 13.234375 15.140625 17.578125 10.59375 
Q 21.921875 6.0625 28.421875 6.0625 
Q 33.25 6.0625 36.671875 8.59375 
Q 40.09375 11.140625 42.09375 16.703125 
z
M 13.234375 30.90625 
L 42.1875 30.90625 
Q 41.609375 37.453125 38.875 40.71875 
Q 34.671875 45.796875 27.984375 45.796875 
Q 21.921875 45.796875 17.796875 41.75 
Q 13.671875 37.703125 13.234375 30.90625 
z
" id="ArialMT-101"/>
      <path d="M -0.140625 0 
L 27.34375 71.578125 
L 37.546875 71.578125 
L 66.84375 0 
L 56.0625 0 
L 47.703125 21.6875 
L 17.78125 21.6875 
L 9.90625 0 
z
M 20.515625 29.390625 
L 44.78125 29.390625 
L 37.3125 49.21875 
Q 33.890625 58.25 32.234375 64.0625 
Q 30.859375 57.171875 28.375 50.390625 
z
" id="ArialMT-65"/>
      <path d="M 14.703125 0 
L 6.546875 0 
L 6.546875 71.578125 
L 15.328125 71.578125 
L 15.328125 46.046875 
Q 20.90625 53.03125 29.546875 53.03125 
Q 34.328125 53.03125 38.59375 51.09375 
Q 42.875 49.171875 45.625 45.671875 
Q 48.390625 42.1875 49.953125 37.25 
Q 51.515625 32.328125 51.515625 26.703125 
Q 51.515625 13.375 44.921875 6.09375 
Q 38.328125 -1.171875 29.109375 -1.171875 
Q 19.921875 -1.171875 14.703125 6.5 
z
M 14.59375 26.3125 
Q 14.59375 17 17.140625 12.84375 
Q 21.296875 6.0625 28.375 6.0625 
Q 34.125 6.0625 38.328125 11.0625 
Q 42.53125 16.0625 42.53125 25.984375 
Q 42.53125 36.140625 38.5 40.96875 
Q 34.46875 45.796875 28.765625 45.796875 
Q 23 45.796875 18.796875 40.796875 
Q 14.59375 35.796875 14.59375 26.3125 
z
" id="ArialMT-98"/>
      <path d="M 3.078125 15.484375 
L 11.765625 16.84375 
Q 12.5 11.625 15.84375 8.84375 
Q 19.1875 6.0625 25.203125 6.0625 
Q 31.25 6.0625 34.171875 8.515625 
Q 37.109375 10.984375 37.109375 14.3125 
Q 37.109375 17.28125 34.515625 19 
Q 32.71875 20.171875 25.53125 21.96875 
Q 15.875 24.421875 12.140625 26.203125 
Q 8.40625 27.984375 6.46875 31.125 
Q 4.546875 34.28125 4.546875 38.09375 
Q 4.546875 41.546875 6.125 44.5 
Q 7.71875 47.46875 10.453125 49.421875 
Q 12.5 50.921875 16.03125 51.96875 
Q 19.578125 53.03125 23.640625 53.03125 
Q 29.734375 53.03125 34.34375 51.265625 
Q 38.96875 49.515625 41.15625 46.5 
Q 43.359375 43.5 44.1875 38.484375 
L 35.59375 37.3125 
Q 35.015625 41.3125 32.203125 43.546875 
Q 29.390625 45.796875 24.265625 45.796875 
Q 18.21875 45.796875 15.625 43.796875 
Q 13.03125 41.796875 13.03125 39.109375 
Q 13.03125 37.40625 14.109375 36.03125 
Q 15.1875 34.625 17.484375 33.6875 
Q 18.796875 33.203125 25.25 31.453125 
Q 34.578125 28.953125 38.25 27.359375 
Q 41.9375 25.78125 44.03125 22.75 
Q 46.140625 19.734375 46.140625 15.234375 
Q 46.140625 10.84375 43.578125 6.953125 
Q 41.015625 3.078125 36.171875 0.953125 
Q 31.34375 -1.171875 25.25 -1.171875 
Q 15.140625 -1.171875 9.84375 3.03125 
Q 4.546875 7.234375 3.078125 15.484375 
z
" id="ArialMT-115"/>
      <path d="M 6.390625 0 
L 6.390625 71.578125 
L 15.1875 71.578125 
L 15.1875 0 
z
" id="ArialMT-108"/>
      <path d="M 40.578125 0 
L 40.578125 7.625 
Q 34.515625 -1.171875 24.125 -1.171875 
Q 19.53125 -1.171875 15.546875 0.578125 
Q 11.578125 2.34375 9.640625 5 
Q 7.71875 7.671875 6.9375 11.53125 
Q 6.390625 14.109375 6.390625 19.734375 
L 6.390625 51.859375 
L 15.1875 51.859375 
L 15.1875 23.09375 
Q 15.1875 16.21875 15.71875 13.8125 
Q 16.546875 10.359375 19.234375 8.375 
Q 21.921875 6.390625 25.875 6.390625 
Q 29.828125 6.390625 33.296875 8.421875 
Q 36.765625 10.453125 38.203125 13.9375 
Q 39.65625 17.4375 39.65625 24.078125 
L 39.65625 51.859375 
L 48.4375 51.859375 
L 48.4375 0 
z
" id="ArialMT-117"/>
      <path d="M 25.78125 7.859375 
L 27.046875 0.09375 
Q 23.34375 -0.6875 20.40625 -0.6875 
Q 15.625 -0.6875 12.984375 0.828125 
Q 10.359375 2.34375 9.28125 4.8125 
Q 8.203125 7.28125 8.203125 15.1875 
L 8.203125 45.015625 
L 1.765625 45.015625 
L 1.765625 51.859375 
L 8.203125 51.859375 
L 8.203125 64.703125 
L 16.9375 69.96875 
L 16.9375 51.859375 
L 25.78125 51.859375 
L 25.78125 45.015625 
L 16.9375 45.015625 
L 16.9375 14.703125 
Q 16.9375 10.9375 17.40625 9.859375 
Q 17.875 8.796875 18.921875 8.15625 
Q 19.96875 7.515625 21.921875 7.515625 
Q 23.390625 7.515625 25.78125 7.859375 
z
" id="ArialMT-116"/>
     </defs>
     <g style="fill:#262626;" transform="translate(27.402266 206.51268)rotate(-90)scale(0.18 -0.18)">
      <use xlink:href="#ArialMT-77"/>
      <use x="83.300781" xlink:href="#ArialMT-101"/>
      <use x="138.916016" xlink:href="#ArialMT-97"/>
      <use x="194.53125" xlink:href="#ArialMT-110"/>
      <use x="250.146484" xlink:href="#ArialMT-32"/>
      <use x="272.429688" xlink:href="#ArialMT-65"/>
      <use x="339.128906" xlink:href="#ArialMT-98"/>
      <use x="394.744141" xlink:href="#ArialMT-115"/>
      <use x="444.744141" xlink:href="#ArialMT-111"/>
      <use x="500.359375" xlink:href="#ArialMT-108"/>
      <use x="522.576172" xlink:href="#ArialMT-117"/>
      <use x="578.191406" xlink:href="#ArialMT-116"/>
      <use x="605.974609" xlink:href="#ArialMT-101"/>
      <use x="661.589844" xlink:href="#ArialMT-32"/>
      <use x="689.373047" xlink:href="#ArialMT-69"/>
      <use x="756.072266" xlink:href="#ArialMT-114"/>
      <use x="789.373047" xlink:href="#ArialMT-114"/>
      <use x="822.673828" xlink:href="#ArialMT-111"/>
      <use x="878.289062" xlink:href="#ArialMT-114"/>
     </g>
     <!-- kcal/mol -->
     <defs>
      <path d="M 6.640625 0 
L 6.640625 71.578125 
L 15.4375 71.578125 
L 15.4375 30.765625 
L 36.234375 51.859375 
L 47.609375 51.859375 
L 27.78125 32.625 
L 49.609375 0 
L 38.765625 0 
L 21.625 26.515625 
L 15.4375 20.5625 
L 15.4375 0 
z
" id="ArialMT-107"/>
      <path d="M 0 -1.21875 
L 20.75 72.796875 
L 27.78125 72.796875 
L 7.078125 -1.21875 
z
" id="ArialMT-47"/>
      <path d="M 6.59375 0 
L 6.59375 51.859375 
L 14.453125 51.859375 
L 14.453125 44.578125 
Q 16.890625 48.390625 20.9375 50.703125 
Q 25 53.03125 30.171875 53.03125 
Q 35.9375 53.03125 39.625 50.640625 
Q 43.3125 48.25 44.828125 43.953125 
Q 50.984375 53.03125 60.84375 53.03125 
Q 68.5625 53.03125 72.703125 48.75 
Q 76.859375 44.484375 76.859375 35.59375 
L 76.859375 0 
L 68.109375 0 
L 68.109375 32.671875 
Q 68.109375 37.9375 67.25 40.25 
Q 66.40625 42.578125 64.15625 43.984375 
Q 61.921875 45.40625 58.890625 45.40625 
Q 53.421875 45.40625 49.796875 41.765625 
Q 46.1875 38.140625 46.1875 30.125 
L 46.1875 0 
L 37.40625 0 
L 37.40625 33.6875 
Q 37.40625 39.546875 35.25 42.46875 
Q 33.109375 45.40625 28.21875 45.40625 
Q 24.515625 45.40625 21.359375 43.453125 
Q 18.21875 41.5 16.796875 37.734375 
Q 15.375 33.984375 15.375 26.90625 
L 15.375 0 
z
" id="ArialMT-109"/>
     </defs>
     <g style="fill:#262626;" transform="translate(46.440641 157.480961)rotate(-90)scale(0.18 -0.18)">
      <use xlink:href="#ArialMT-107"/>
      <use x="50" xlink:href="#ArialMT-99"/>
      <use x="100" xlink:href="#ArialMT-97"/>
      <use x="155.615234" xlink:href="#ArialMT-108"/>
      <use x="177.832031" xlink:href="#ArialMT-47"/>
      <use x="205.615234" xlink:href="#ArialMT-109"/>
      <use x="288.916016" xlink:href="#ArialMT-111"/>
      <use x="344.53125" xlink:href="#ArialMT-108"/>
     </g>
    </g>
   </g>
   <g id="line2d_14">
    <path clip-path="url(#p23882f796e)" d="M 136.016025 -1 
L 136.367185 19.468913 
L 136.914993 20.656514 
L 137.462801 28.957195 
L 138.010609 34.546135 
L 138.558417 45.840361 
L 139.654034 57.263721 
L 140.201842 57.479587 
L 140.74965 63.937714 
L 141.297458 67.687524 
L 141.845266 62.374076 
L 142.393074 67.57963 
L 142.940882 80.670089 
L 143.48869 85.749358 
L 144.036498 82.776202 
L 144.584306 78.657585 
L 145.132115 93.085065 
L 145.679923 97.09503 
L 146.227731 91.265763 
L 146.775539 97.05064 
L 147.323347 95.662515 
L 147.871155 88.504319 
L 148.418963 101.858677 
L 148.966771 98.605569 
L 149.514579 100.944438 
L 150.062387 106.199114 
L 150.610195 106.764328 
L 151.158003 108.540716 
L 151.705812 114.274617 
L 152.25362 116.044638 
L 152.801428 109.849233 
L 153.349236 115.297651 
L 153.897044 108.024584 
L 154.444852 105.831732 
L 154.99266 116.219963 
L 155.540468 115.834242 
L 156.088276 116.5237 
L 156.636084 118.814647 
L 157.183892 115.141141 
L 157.731701 125.16921 
L 158.279509 120.996435 
L 159.375125 129.578295 
L 159.922933 121.376245 
L 160.470741 132.431038 
L 161.018549 130.766055 
L 161.566357 125.812194 
L 162.114165 129.801989 
L 162.661973 124.523993 
L 163.757589 134.416995 
L 164.305398 130.621328 
L 164.853206 135.914788 
L 165.401014 131.797244 
L 165.948822 129.147771 
L 166.49663 137.929217 
L 167.044438 138.323285 
L 167.592246 137.11503 
L 168.140054 136.191972 
L 168.687862 136.182888 
L 169.23567 134.65381 
L 169.783478 139.101423 
L 170.331287 140.494856 
L 170.879095 142.418586 
L 171.426903 132.675904 
L 171.974711 137.98274 
L 172.522519 141.87656 
L 173.070327 136.256118 
L 173.618135 143.539867 
L 174.165943 142.737792 
L 174.713751 146.483175 
L 175.261559 136.575148 
L 175.809367 135.366247 
L 176.357175 146.547463 
L 178.0006 142.613736 
L 178.548408 145.869874 
L 179.096216 141.571181 
L 179.644024 146.330979 
L 180.191832 144.928047 
L 180.73964 149.776706 
L 181.287448 144.615696 
L 181.835256 150.017674 
L 182.383064 151.914987 
L 182.930873 150.310814 
L 183.478681 147.096167 
L 184.026489 152.71196 
L 184.574297 146.557197 
L 185.122105 152.665144 
L 185.669913 153.421024 
L 186.217721 145.887139 
L 186.765529 156.848431 
L 187.313337 153.607717 
L 187.861145 148.139773 
L 189.50457 157.47244 
L 190.052378 153.729209 
L 190.600186 153.640392 
L 191.147994 156.747184 
L 191.695802 156.179761 
L 192.24361 154.898044 
L 192.791418 155.687588 
L 193.339226 159.643139 
L 193.887034 156.0527 
L 194.434842 156.331319 
L 194.98265 156.9646 
L 195.530459 152.980867 
L 196.078267 156.908957 
L 196.626075 154.086022 
L 197.173883 155.360209 
L 197.721691 160.648917 
L 198.269499 162.446116 
L 198.817307 160.066837 
L 199.365115 162.889043 
L 199.912923 162.638951 
L 200.460731 159.596709 
L 201.008539 163.770399 
L 201.556347 157.145552 
L 202.104156 156.08282 
L 202.651964 159.269453 
L 203.199772 156.81116 
L 203.74758 165.633188 
L 204.295388 162.096579 
L 204.843196 156.210739 
L 205.391004 163.88763 
L 205.938812 162.843526 
L 206.48662 159.82626 
L 207.034428 163.466945 
L 207.582236 166.003437 
L 208.130045 161.683751 
L 208.677853 160.147368 
L 209.225661 160.718377 
L 209.773469 163.628047 
L 210.321277 160.857097 
L 210.869085 161.239266 
L 211.416893 161.050864 
L 211.964701 164.438609 
L 212.512509 165.907342 
L 213.060317 161.404985 
L 213.608125 166.885164 
L 214.155933 165.214739 
L 214.703742 163.902173 
L 215.25155 163.362686 
L 215.799358 165.438086 
L 216.347166 166.476659 
L 216.894974 162.27403 
L 217.442782 165.385101 
L 217.99059 164.308396 
L 218.538398 169.227287 
L 219.086206 165.751795 
L 219.634014 164.792401 
L 220.181822 169.322016 
L 220.729631 167.163131 
L 221.277439 170.39517 
L 221.825247 167.069373 
L 222.373055 169.451023 
L 223.468671 166.592336 
L 224.016479 166.942731 
L 224.564287 164.124318 
L 225.112095 166.75517 
L 225.659903 165.923139 
L 226.207711 169.922333 
L 226.755519 169.96248 
L 227.303328 165.364166 
L 227.851136 169.73796 
L 228.398944 163.997038 
L 228.946752 169.633654 
L 229.49456 168.710069 
L 230.042368 168.52225 
L 230.590176 167.125937 
L 231.137984 171.81117 
L 231.685792 172.191333 
L 232.2336 170.78442 
L 232.781408 161.59321 
L 233.329217 173.035821 
L 233.877025 167.816276 
L 234.424833 171.188147 
L 234.972641 171.864744 
L 235.520449 167.193509 
L 236.068257 170.451545 
L 236.616065 169.618854 
L 237.163873 170.835426 
L 237.711681 173.170866 
L 238.259489 171.965531 
L 238.807297 168.890438 
L 239.355106 171.054408 
L 239.902914 170.616064 
L 240.450722 169.511172 
L 240.99853 172.466015 
L 241.546338 172.52459 
L 242.094146 170.22442 
L 242.641954 172.960233 
L 243.189762 171.663753 
L 243.73757 175.048854 
L 244.285378 171.061076 
L 244.833186 173.328035 
L 245.380994 172.199553 
L 245.928803 173.039059 
L 246.476611 175.289754 
L 247.024419 175.830443 
L 247.572227 170.708048 
L 248.120035 175.590327 
L 248.667843 173.626384 
L 249.215651 174.170172 
L 249.763459 173.942183 
L 250.859075 176.33318 
L 251.406883 175.944354 
L 251.954692 173.993955 
L 252.5025 175.683757 
L 253.050308 176.565714 
L 253.598116 172.268674 
L 254.145924 177.709144 
L 254.693732 175.247699 
L 255.24154 174.236729 
L 255.789348 175.271531 
L 256.337156 175.292937 
L 256.884964 176.07112 
L 257.432772 176.018169 
L 257.98058 173.330064 
L 258.528389 177.306932 
L 259.076197 175.104554 
L 259.624005 175.004805 
L 260.171813 173.341525 
L 260.719621 175.788798 
L 261.267429 171.609581 
L 261.815237 175.334105 
L 262.363045 176.483052 
L 262.910853 175.520049 
L 263.458661 175.572618 
L 264.006469 174.346455 
L 264.554278 177.241646 
L 265.102086 177.888225 
L 265.649894 172.848932 
L 266.197702 174.959658 
L 266.74551 177.963698 
L 267.293318 178.029602 
L 267.841126 176.629518 
L 268.388934 178.243116 
L 268.936742 172.530717 
L 269.48455 175.99757 
L 270.032358 175.848736 
L 270.580166 176.410594 
L 271.127975 177.398818 
L 271.675783 176.0557 
L 272.223591 179.547094 
L 272.771399 175.272073 
L 273.319207 173.683976 
L 273.867015 180.079356 
L 274.414823 179.423638 
L 275.510439 179.763291 
L 276.058247 175.67935 
L 276.606055 177.740119 
L 277.153864 181.04652 
L 277.701672 178.954965 
L 278.24948 178.757158 
L 278.797288 178.943841 
L 279.345096 171.587337 
L 279.892904 180.311835 
L 280.440712 175.799575 
L 280.98852 178.652005 
L 281.536328 180.644311 
L 282.084136 180.048956 
L 282.631944 177.145538 
L 283.179752 179.837003 
L 283.727561 179.508032 
L 284.275369 180.558371 
L 284.823177 180.199991 
L 285.370985 181.987001 
L 285.918793 178.757158 
L 286.466601 181.58668 
L 287.014409 180.270272 
L 287.562217 179.834855 
L 288.657833 180.000896 
L 289.205641 170.611462 
L 289.75345 175.310026 
L 290.301258 182.070361 
L 290.849066 180.003771 
L 291.396874 178.997871 
L 291.944682 185.321342 
L 292.49249 181.394998 
L 293.040298 180.59262 
L 293.588106 183.834172 
L 294.135914 182.194336 
L 294.683722 177.627522 
L 295.23153 181.716589 
L 295.779338 180.014351 
L 296.327147 181.949259 
L 296.874955 178.025292 
L 297.422763 180.161472 
L 297.970571 178.020639 
L 298.518379 185.202969 
L 299.066187 180.052121 
L 299.613995 178.800423 
L 300.161803 183.757828 
L 300.709611 180.01521 
L 301.257419 181.112928 
L 301.805227 183.867006 
L 302.353036 177.040835 
L 302.900844 183.158313 
L 303.448652 183.007961 
L 303.99646 183.665134 
L 304.544268 182.389284 
L 305.092076 181.58476 
L 305.639884 184.959209 
L 306.187692 181.17969 
L 306.7355 182.017732 
L 307.283308 184.336407 
L 307.831116 183.353682 
L 308.378924 183.163053 
L 308.926733 183.228417 
L 309.474541 182.742896 
L 310.022349 183.190712 
L 310.570157 177.72828 
L 311.117965 182.843405 
L 311.665773 183.372394 
L 312.213581 182.829191 
L 312.761389 180.930126 
L 313.309197 183.405234 
L 313.857005 182.221743 
L 314.404813 181.705207 
L 314.952622 182.598884 
L 315.50043 185.038216 
L 316.048238 182.875899 
L 316.596046 183.422701 
L 317.143854 182.226214 
L 317.691662 182.694469 
L 318.23947 181.549987 
L 318.787278 181.400401 
L 319.335086 183.61613 
L 319.882894 182.87214 
L 320.97851 185.048958 
L 321.526319 183.846277 
L 322.074127 184.264186 
L 322.621935 185.425853 
L 323.169743 184.739158 
L 323.717551 181.060737 
L 324.265359 180.488577 
L 324.813167 183.244004 
L 325.360975 185.265743 
L 325.908783 186.268586 
L 327.004399 184.477432 
L 327.552208 184.995134 
L 328.100016 187.137725 
L 328.647824 184.146691 
L 329.195632 183.303216 
L 329.74344 183.69653 
L 330.291248 181.758528 
L 330.839056 181.841345 
L 331.386864 185.951947 
L 331.934672 181.345009 
L 332.48248 185.361141 
L 333.030288 183.219107 
L 333.578096 181.548283 
L 334.125905 185.677459 
L 334.673713 180.126052 
L 335.221521 184.291737 
L 335.769329 186.625552 
L 336.317137 183.134343 
L 336.864945 186.230389 
L 337.412753 186.001085 
L 337.960561 183.060936 
L 338.508369 184.475044 
L 339.056177 184.259875 
L 339.603985 185.800217 
L 340.699602 185.477409 
L 341.24741 184.207192 
L 341.795218 187.53792 
L 342.343026 183.645497 
L 342.890834 185.530125 
L 343.438642 183.959867 
L 343.98645 186.171694 
L 344.534258 186.01679 
L 345.082066 182.39613 
L 345.629874 185.023719 
L 346.725491 186.263462 
L 347.273299 184.364321 
L 347.821107 183.847117 
L 348.368915 184.325462 
L 348.916723 183.005367 
L 349.464531 184.931815 
L 350.012339 186.219396 
L 350.560147 184.63365 
L 351.107955 181.33368 
L 351.655763 185.417475 
L 352.203571 187.193612 
L 352.75138 186.422057 
L 353.846996 188.691371 
L 354.394804 187.189944 
L 354.942612 186.396281 
L 355.49042 187.439822 
L 356.038228 185.843029 
L 356.586036 185.621761 
L 357.133844 186.392699 
L 357.681652 187.436776 
L 358.22946 185.205629 
L 358.777268 184.980217 
L 359.325077 187.521657 
L 359.872885 187.299191 
L 360.420693 187.729408 
L 360.968501 186.942689 
L 361.516309 184.930502 
L 362.064117 186.599691 
L 362.611925 189.791735 
L 363.159733 183.961495 
L 363.707541 185.171266 
L 364.255349 185.303016 
L 364.803157 189.785819 
L 365.350966 186.149617 
L 365.898774 187.258456 
L 366.446582 186.313184 
L 367.542198 189.55679 
L 368.090006 186.873579 
L 368.637814 187.64583 
L 369.185622 185.676798 
L 369.73343 188.442977 
L 370.281238 187.182967 
L 370.829046 187.787642 
L 371.924663 186.924323 
L 372.472471 189.330574 
L 373.020279 187.297667 
L 373.568087 185.761438 
L 374.115895 187.31427 
L 374.663703 186.629276 
L 375.211511 184.954268 
L 375.759319 186.191774 
L 376.307127 188.107729 
L 376.854935 186.063934 
L 377.402743 186.764426 
L 377.950552 190.264669 
L 378.49836 187.303936 
L 379.046168 188.5881 
L 379.593976 186.91347 
L 380.141784 190.82844 
L 381.2374 189.049969 
L 381.785208 187.033488 
L 382.333016 187.431298 
L 382.880824 189.780791 
L 383.428632 186.578248 
L 383.97644 188.565551 
L 384.524249 186.855106 
L 385.072057 188.470164 
L 385.619865 183.397808 
L 386.167673 188.773376 
L 386.715481 188.033115 
L 387.263289 188.070876 
L 387.811097 186.326956 
L 388.358905 189.357026 
L 388.906713 186.346489 
L 389.454521 188.819414 
L 390.002329 184.570619 
L 390.550138 191.60317 
L 391.097946 187.62179 
L 392.193562 189.217234 
L 392.74137 189.679686 
L 393.289178 189.612387 
L 394.384794 188.430436 
L 394.932602 186.539843 
L 396.028218 190.336717 
L 396.576026 188.216166 
L 397.123835 186.7519 
L 397.671643 188.600926 
L 398.219451 189.116481 
L 398.767259 187.082982 
L 399.315067 189.932424 
L 399.862875 188.481173 
L 400.410683 188.907208 
L 400.958491 187.453101 
L 401.506299 189.575745 
L 402.054107 187.180721 
L 402.601915 188.857531 
L 403.149724 191.130376 
L 403.697532 191.0908 
L 404.24534 192.515813 
L 404.793148 188.209769 
L 405.340956 188.930942 
L 405.888764 190.832427 
L 406.436572 188.061733 
L 406.98438 191.284342 
L 407.532188 187.586185 
L 407.532188 187.586185 
" style="fill:none;stroke:#4c72b0;stroke-linecap:round;stroke-width:2.25;"/>
   </g>
   <g id="line2d_15">
    <path clip-path="url(#p23882f796e)" d="M 136.560161 -1 
L 136.914993 28.299806 
L 137.462801 29.985483 
L 138.010609 46.694406 
L 138.558417 50.41781 
L 139.106226 38.23517 
L 139.654034 55.784119 
L 140.201842 65.434559 
L 140.74965 29.072502 
L 141.297458 58.971786 
L 141.845266 34.605287 
L 142.393074 61.294679 
L 142.940882 75.872274 
L 143.48869 59.931253 
L 144.036498 82.410011 
L 144.584306 36.342858 
L 145.679923 80.84525 
L 146.227731 71.195667 
L 146.775539 85.557149 
L 147.323347 84.014856 
L 147.871155 83.495875 
L 148.418963 61.574505 
L 148.966771 96.018704 
L 149.514579 94.020013 
L 150.062387 94.418324 
L 150.610195 71.192951 
L 151.158003 97.071487 
L 151.705812 100.904263 
L 152.25362 72.251375 
L 152.801428 82.510227 
L 153.349236 89.909554 
L 153.897044 63.370386 
L 154.444852 102.79605 
L 154.99266 106.366499 
L 155.540468 85.907641 
L 156.088276 90.922799 
L 156.636084 100.201037 
L 157.183892 101.637705 
L 157.731701 94.662502 
L 158.279509 100.245891 
L 158.827317 100.692464 
L 159.375125 84.32531 
L 159.922933 121.489691 
L 160.470741 103.406768 
L 161.018549 114.352594 
L 161.566357 106.386647 
L 162.114165 103.428639 
L 162.661973 96.211338 
L 163.209781 106.242631 
L 163.757589 108.608918 
L 164.305398 115.178966 
L 164.853206 116.741817 
L 165.401014 114.567582 
L 165.948822 118.957927 
L 166.49663 106.621429 
L 167.044438 109.433596 
L 167.592246 118.623689 
L 168.140054 113.778077 
L 168.687862 117.445241 
L 169.23567 114.698199 
L 169.783478 122.961968 
L 170.331287 116.895677 
L 170.879095 115.569544 
L 171.426903 114.681609 
L 171.974711 119.662154 
L 172.522519 121.649896 
L 173.070327 87.439865 
L 173.618135 117.301643 
L 174.165943 123.165306 
L 174.713751 114.51359 
L 175.261559 90.459266 
L 175.809367 117.091468 
L 176.357175 126.327646 
L 176.904984 107.364233 
L 177.452792 114.139488 
L 178.0006 127.410067 
L 178.548408 95.326254 
L 179.096216 112.993201 
L 179.644024 122.759033 
L 180.191832 122.019216 
L 180.73964 114.113539 
L 181.287448 115.999149 
L 181.835256 111.170633 
L 182.383064 122.960381 
L 182.930873 113.318494 
L 183.478681 122.048466 
L 184.026489 124.514662 
L 184.574297 123.498775 
L 185.122105 115.313078 
L 185.669913 122.320833 
L 186.217721 125.987439 
L 186.765529 124.087944 
L 187.313337 119.594595 
L 187.861145 122.458395 
L 188.408953 114.823463 
L 188.956761 126.658763 
L 189.50457 125.097665 
L 190.052378 130.473528 
L 190.600186 115.619535 
L 191.147994 128.124465 
L 191.695802 120.411557 
L 192.24361 128.389878 
L 192.791418 124.684516 
L 193.339226 116.754198 
L 193.887034 122.397417 
L 194.434842 120.433331 
L 194.98265 116.949118 
L 195.530459 124.272328 
L 196.078267 127.56251 
L 196.626075 128.199412 
L 197.173883 130.712443 
L 197.721691 126.941667 
L 198.269499 120.665572 
L 198.817307 130.078426 
L 199.365115 133.250123 
L 199.912923 134.558791 
L 200.460731 123.010641 
L 201.008539 135.792924 
L 201.556347 124.792404 
L 202.104156 131.58889 
L 202.651964 108.675 
L 203.199772 123.377066 
L 203.74758 128.53664 
L 204.295388 105.548068 
L 204.843196 129.497811 
L 205.391004 134.078639 
L 205.938812 132.797348 
L 206.48662 136.115972 
L 207.034428 133.427555 
L 207.582236 120.61943 
L 208.130045 119.556271 
L 208.677853 112.985027 
L 209.225661 115.605484 
L 209.773469 124.602763 
L 210.321277 123.263851 
L 210.869085 133.609444 
L 211.416893 118.259481 
L 211.964701 134.744344 
L 212.512509 129.097168 
L 213.060317 130.319864 
L 213.608125 137.06849 
L 214.703742 118.715354 
L 215.25155 116.095733 
L 215.799358 133.837321 
L 216.347166 111.860797 
L 216.894974 131.169849 
L 217.442782 118.09338 
L 217.99059 124.770981 
L 218.538398 127.581208 
L 219.086206 135.271992 
L 219.634014 130.925701 
L 220.181822 130.810961 
L 220.729631 131.276344 
L 221.277439 130.3742 
L 221.825247 127.84783 
L 222.373055 133.80218 
L 222.920863 117.572846 
L 223.468671 122.96506 
L 224.016479 130.420911 
L 224.564287 133.007678 
L 225.112095 115.9903 
L 225.659903 121.040525 
L 226.207711 124.82398 
L 226.755519 123.034001 
L 227.303328 127.708617 
L 227.851136 129.782245 
L 228.398944 125.297507 
L 228.946752 138.619653 
L 230.042368 125.765901 
L 230.590176 132.806922 
L 231.137984 133.61867 
L 231.685792 112.017722 
L 233.329217 126.831587 
L 233.877025 137.640775 
L 234.424833 137.104027 
L 234.972641 122.146969 
L 235.520449 130.860221 
L 236.068257 136.606369 
L 236.616065 136.24099 
L 237.163873 132.68667 
L 237.711681 134.827001 
L 238.259489 129.750194 
L 238.807297 137.630751 
L 239.355106 138.20704 
L 239.902914 126.885792 
L 240.450722 132.778036 
L 240.99853 134.734983 
L 241.546338 132.349788 
L 242.094146 134.912382 
L 242.641954 139.032412 
L 243.189762 135.252655 
L 243.73757 140.949016 
L 244.833186 138.636595 
L 245.380994 131.472295 
L 245.928803 138.88682 
L 246.476611 130.81363 
L 247.024419 137.017109 
L 247.572227 133.857205 
L 248.120035 126.527052 
L 248.667843 134.714036 
L 249.215651 135.035696 
L 249.763459 136.630154 
L 250.311267 139.632605 
L 250.859075 133.761948 
L 251.406883 132.964885 
L 251.954692 134.348285 
L 252.5025 137.570283 
L 253.050308 137.37289 
L 253.598116 135.238408 
L 254.145924 129.973219 
L 254.693732 130.126186 
L 255.24154 133.971529 
L 255.789348 129.675692 
L 256.337156 135.354627 
L 256.884964 130.482172 
L 257.98058 136.939051 
L 258.528389 129.720415 
L 259.076197 139.58868 
L 259.624005 133.975754 
L 260.171813 124.328788 
L 260.719621 125.33118 
L 261.267429 125.693598 
L 261.815237 141.716463 
L 262.910853 130.847279 
L 263.458661 137.462676 
L 264.006469 135.498896 
L 264.554278 132.515344 
L 265.102086 130.938494 
L 265.649894 136.947381 
L 266.197702 140.249643 
L 266.74551 127.647543 
L 267.841126 138.356929 
L 268.388934 136.567392 
L 268.936742 132.760947 
L 269.48455 135.267892 
L 270.032358 140.178436 
L 270.580166 139.76742 
L 271.127975 140.367163 
L 271.675783 134.979466 
L 272.223591 136.235535 
L 272.771399 137.173018 
L 273.319207 135.52652 
L 273.867015 140.962857 
L 274.414823 136.401161 
L 274.962631 140.437584 
L 275.510439 139.407823 
L 276.058247 138.872446 
L 277.153864 140.807296 
L 277.701672 136.825266 
L 278.24948 122.036701 
L 278.797288 135.124278 
L 279.345096 140.650555 
L 279.892904 141.742533 
L 280.440712 137.317845 
L 280.98852 128.385046 
L 281.536328 134.886705 
L 282.084136 136.624158 
L 282.631944 133.867941 
L 283.179752 138.715136 
L 283.727561 137.56959 
L 284.275369 137.629582 
L 284.823177 136.681501 
L 285.370985 129.226173 
L 286.466601 140.870828 
L 287.014409 137.692945 
L 287.562217 140.455061 
L 288.110025 136.34885 
L 288.657833 136.341105 
L 289.205641 125.587269 
L 289.75345 131.160191 
L 290.301258 138.353735 
L 290.849066 136.510878 
L 291.396874 135.465702 
L 291.944682 134.777235 
L 292.49249 135.252548 
L 293.040298 136.10423 
L 293.588106 134.155726 
L 294.135914 137.397932 
L 294.683722 133.65121 
L 295.23153 118.968018 
L 295.779338 136.882131 
L 296.327147 140.021634 
L 296.874955 140.676665 
L 297.422763 130.614947 
L 297.970571 140.242227 
L 298.518379 140.699636 
L 299.066187 137.524463 
L 299.613995 137.399066 
L 300.161803 132.140729 
L 300.709611 134.495721 
L 301.257419 137.912963 
L 301.805227 131.840214 
L 302.353036 133.458477 
L 302.900844 133.070018 
L 303.448652 139.378406 
L 303.99646 136.84539 
L 304.544268 139.087651 
L 305.092076 135.600481 
L 305.639884 139.472948 
L 306.187692 126.790963 
L 306.7355 138.408483 
L 307.283308 137.170565 
L 307.831116 133.336111 
L 308.378924 136.74367 
L 308.926733 143.199039 
L 309.474541 135.842897 
L 310.022349 137.536936 
L 311.117965 132.617344 
L 311.665773 126.541632 
L 312.213581 137.887179 
L 312.761389 135.522887 
L 313.309197 135.689273 
L 313.857005 137.522292 
L 314.404813 128.942741 
L 314.952622 133.714263 
L 315.50043 136.816309 
L 316.048238 141.153928 
L 316.596046 136.71288 
L 317.143854 142.407102 
L 317.691662 138.995112 
L 318.23947 139.04882 
L 318.787278 135.379165 
L 319.335086 127.918724 
L 320.430702 143.960971 
L 320.97851 137.974272 
L 321.526319 142.919582 
L 322.074127 134.935773 
L 322.621935 139.478574 
L 323.169743 140.015738 
L 323.717551 138.518763 
L 324.265359 140.983855 
L 324.813167 139.72599 
L 325.360975 135.358444 
L 325.908783 135.643703 
L 326.456591 138.816542 
L 327.004399 139.300143 
L 327.552208 140.674163 
L 328.100016 138.548312 
L 328.647824 140.914731 
L 329.74344 134.550569 
L 330.291248 139.175692 
L 330.839056 127.559941 
L 331.386864 132.403732 
L 331.934672 138.950735 
L 332.48248 139.156092 
L 333.030288 142.148627 
L 333.578096 135.901781 
L 334.125905 137.923756 
L 334.673713 129.809061 
L 335.221521 138.782681 
L 335.769329 135.579266 
L 336.317137 134.452113 
L 336.864945 138.276079 
L 337.412753 140.131163 
L 337.960561 134.414228 
L 338.508369 130.2237 
L 339.056177 130.713132 
L 339.603985 138.499521 
L 340.151794 138.291965 
L 340.699602 139.862882 
L 341.24741 141.013058 
L 341.795218 138.525923 
L 342.343026 139.5258 
L 342.890834 141.099254 
L 343.438642 131.734008 
L 343.98645 129.712755 
L 344.534258 133.969725 
L 345.082066 143.040786 
L 345.629874 134.418849 
L 346.177682 141.402703 
L 346.725491 137.555673 
L 347.273299 140.501362 
L 347.821107 129.365879 
L 348.368915 137.288281 
L 348.916723 140.713303 
L 349.464531 122.901651 
L 350.012339 136.102415 
L 350.560147 139.46911 
L 351.107955 140.033955 
L 351.655763 141.524241 
L 352.203571 141.039553 
L 352.75138 134.712503 
L 353.299188 141.362792 
L 353.846996 140.495898 
L 354.394804 136.556826 
L 354.942612 138.280023 
L 355.49042 138.577739 
L 356.038228 137.04296 
L 356.586036 137.399263 
L 357.133844 140.042934 
L 357.681652 129.73573 
L 358.22946 139.190695 
L 358.777268 137.199869 
L 359.325077 138.457588 
L 359.872885 141.850532 
L 360.968501 129.549342 
L 361.516309 136.987735 
L 362.064117 142.802356 
L 362.611925 137.992645 
L 363.159733 141.401109 
L 363.707541 138.271316 
L 364.255349 141.629781 
L 364.803157 138.363083 
L 365.350966 139.885388 
L 365.898774 137.983651 
L 366.446582 138.932617 
L 366.99439 140.906606 
L 367.542198 146.829036 
L 368.090006 140.543828 
L 368.637814 137.481815 
L 369.185622 133.585246 
L 369.73343 141.715884 
L 370.281238 141.759395 
L 370.829046 142.022363 
L 371.376854 138.059684 
L 371.924663 127.103893 
L 372.472471 139.455232 
L 373.020279 136.402738 
L 374.115895 144.520479 
L 374.663703 141.412714 
L 375.211511 141.021436 
L 375.759319 138.672088 
L 376.307127 140.641496 
L 376.854935 139.116894 
L 377.402743 139.192428 
L 377.950552 138.598486 
L 378.49836 140.935527 
L 379.046168 139.976193 
L 379.593976 143.075917 
L 380.141784 140.196703 
L 380.689592 135.074347 
L 381.2374 142.975402 
L 381.785208 138.706453 
L 382.333016 141.277675 
L 382.880824 140.045081 
L 383.97644 140.632922 
L 384.524249 138.808292 
L 385.072057 138.505147 
L 385.619865 139.278012 
L 386.167673 143.264581 
L 386.715481 141.832204 
L 387.263289 140.749634 
L 388.358905 134.186915 
L 388.906713 140.784101 
L 389.454521 143.598456 
L 390.002329 139.767663 
L 390.550138 144.261392 
L 391.097946 141.335192 
L 391.645754 140.33726 
L 392.193562 140.100808 
L 392.74137 132.069844 
L 393.289178 141.726676 
L 393.836986 137.825787 
L 394.384794 142.996444 
L 394.932602 138.528914 
L 395.48041 132.830357 
L 396.028218 141.195016 
L 396.576026 142.63119 
L 397.123835 138.507415 
L 397.671643 141.769255 
L 398.219451 137.143855 
L 398.767259 142.941033 
L 399.315067 138.535541 
L 399.862875 139.681997 
L 400.410683 143.944225 
L 400.958491 138.222147 
L 401.506299 140.118101 
L 402.601915 134.982255 
L 403.149724 138.980083 
L 403.697532 138.36661 
L 404.24534 135.229152 
L 404.793148 141.951566 
L 405.340956 140.679025 
L 405.888764 137.837547 
L 406.436572 142.328551 
L 406.98438 137.660128 
L 407.532188 141.213135 
L 407.532188 141.213135 
" style="fill:none;stroke:#dd8452;stroke-linecap:round;stroke-width:2.25;"/>
   </g>
   <g id="line2d_16">
    <path clip-path="url(#p23882f796e)" d="M 120.508141 124.474867 
L 421.2 124.474867 
" style="fill:none;stroke:#666666;stroke-dasharray:8.325,3.6;stroke-dashoffset:0;stroke-width:2.25;"/>
   </g>
   <g id="patch_3">
    <path d="M 120.508141 227.7 
L 120.508141 21.249734 
" style="fill:none;stroke:#262626;stroke-linecap:square;stroke-linejoin:miter;stroke-width:1.875;"/>
   </g>
   <g id="patch_4">
    <path d="M 421.2 227.7 
L 421.2 21.249734 
" style="fill:none;stroke:#262626;stroke-linecap:square;stroke-linejoin:miter;stroke-width:1.875;"/>
   </g>
   <g id="patch_5">
    <path d="M 120.508141 227.7 
L 421.2 227.7 
" style="fill:none;stroke:#262626;stroke-linecap:square;stroke-linejoin:miter;stroke-width:1.875;"/>
   </g>
   <g id="patch_6">
    <path d="M 120.508141 21.249734 
L 421.2 21.249734 
" style="fill:none;stroke:#262626;stroke-linecap:square;stroke-linejoin:miter;stroke-width:1.875;"/>
   </g>
   <g id="legend_1">
    <g id="line2d_17">
     <path d="M 254.975391 42.135125 
L 287.975391 42.135125 
" style="fill:none;stroke:#4c72b0;stroke-linecap:round;stroke-width:2.25;"/>
    </g>
    <g id="line2d_18"/>
    <g id="text_12">
     <!-- Training loss -->
     <g style="fill:#262626;" transform="translate(301.175391 47.910125)scale(0.165 -0.165)">
      <use xlink:href="#ArialMT-84"/>
      <use x="57.333984" xlink:href="#ArialMT-114"/>
      <use x="90.634766" xlink:href="#ArialMT-97"/>
      <use x="146.25" xlink:href="#ArialMT-105"/>
      <use x="168.466797" xlink:href="#ArialMT-110"/>
      <use x="224.082031" xlink:href="#ArialMT-105"/>
      <use x="246.298828" xlink:href="#ArialMT-110"/>
      <use x="301.914062" xlink:href="#ArialMT-103"/>
      <use x="357.529297" xlink:href="#ArialMT-32"/>
      <use x="385.3125" xlink:href="#ArialMT-108"/>
      <use x="407.529297" xlink:href="#ArialMT-111"/>
      <use x="463.144531" xlink:href="#ArialMT-115"/>
      <use x="513.144531" xlink:href="#ArialMT-115"/>
     </g>
    </g>
    <g id="line2d_19">
     <path d="M 254.975391 65.66825 
L 287.975391 65.66825 
" style="fill:none;stroke:#dd8452;stroke-linecap:round;stroke-width:2.25;"/>
    </g>
    <g id="line2d_20"/>
    <g id="text_13">
     <!-- Validation loss -->
     <defs>
      <path d="M 28.171875 0 
L 0.4375 71.578125 
L 10.6875 71.578125 
L 29.296875 19.578125 
Q 31.546875 13.328125 33.0625 7.859375 
Q 34.71875 13.71875 36.921875 19.578125 
L 56.25 71.578125 
L 65.921875 71.578125 
L 37.890625 0 
z
" id="ArialMT-86"/>
      <path d="M 40.234375 0 
L 40.234375 6.546875 
Q 35.296875 -1.171875 25.734375 -1.171875 
Q 19.53125 -1.171875 14.328125 2.25 
Q 9.125 5.671875 6.265625 11.796875 
Q 3.421875 17.921875 3.421875 25.875 
Q 3.421875 33.640625 6 39.96875 
Q 8.59375 46.296875 13.765625 49.65625 
Q 18.953125 53.03125 25.34375 53.03125 
Q 30.03125 53.03125 33.6875 51.046875 
Q 37.359375 49.078125 39.65625 45.90625 
L 39.65625 71.578125 
L 48.390625 71.578125 
L 48.390625 0 
z
M 12.453125 25.875 
Q 12.453125 15.921875 16.640625 10.984375 
Q 20.84375 6.0625 26.5625 6.0625 
Q 32.328125 6.0625 36.34375 10.765625 
Q 40.375 15.484375 40.375 25.140625 
Q 40.375 35.796875 36.265625 40.765625 
Q 32.171875 45.75 26.171875 45.75 
Q 20.3125 45.75 16.375 40.96875 
Q 12.453125 36.1875 12.453125 25.875 
z
" id="ArialMT-100"/>
     </defs>
     <g style="fill:#262626;" transform="translate(301.175391 71.44325)scale(0.165 -0.165)">
      <use xlink:href="#ArialMT-86"/>
      <use x="59.324219" xlink:href="#ArialMT-97"/>
      <use x="114.939453" xlink:href="#ArialMT-108"/>
      <use x="137.15625" xlink:href="#ArialMT-105"/>
      <use x="159.373047" xlink:href="#ArialMT-100"/>
      <use x="214.988281" xlink:href="#ArialMT-97"/>
      <use x="270.603516" xlink:href="#ArialMT-116"/>
      <use x="298.386719" xlink:href="#ArialMT-105"/>
      <use x="320.603516" xlink:href="#ArialMT-111"/>
      <use x="376.21875" xlink:href="#ArialMT-110"/>
      <use x="431.833984" xlink:href="#ArialMT-32"/>
      <use x="459.617188" xlink:href="#ArialMT-108"/>
      <use x="481.833984" xlink:href="#ArialMT-111"/>
      <use x="537.449219" xlink:href="#ArialMT-115"/>
      <use x="587.449219" xlink:href="#ArialMT-115"/>
     </g>
    </g>
   </g>
  </g>
 </g>
 <defs>
  <clipPath id="p23882f796e">
   <rect height="206.450266" width="300.691859" x="120.508141" y="21.249734"/>
  </clipPath>
 </defs>
</svg>
