<?xml version="1.0" encoding="utf-8" standalone="no"?>
<!DOCTYPE svg PUBLIC "-//W3C//DTD SVG 1.1//EN"
  "http://www.w3.org/Graphics/SVG/1.1/DTD/svg11.dtd">
<!-- Created with matplotlib (https://matplotlib.org/) -->
<svg height="288pt" version="1.1" viewBox="0 0 432 288" width="432pt" xmlns="http://www.w3.org/2000/svg" xmlns:xlink="http://www.w3.org/1999/xlink">
 <defs>
  <style type="text/css">
*{stroke-linecap:butt;stroke-linejoin:round;}
  </style>
 </defs>
 <g id="figure_1">
  <g id="patch_1">
   <path d="M 0 288 
L 432 288 
L 432 0 
L 0 0 
z
" style="fill:#ffffff;"/>
  </g>
  <g id="axes_1">
   <g id="patch_2">
    <path d="M 120.508141 227.7 
L 421.2 227.7 
L 421.2 21.249734 
L 120.508141 21.249734 
z
" style="fill:#ffffff;"/>
   </g>
   <g id="matplotlib.axis_1">
    <g id="xtick_1">
     <g id="line2d_1">
      <defs>
       <path d="M 0 0 
L 0 9 
" id="mc222f17d3b" style="stroke:#262626;stroke-width:1.875;"/>
      </defs>
      <g>
       <use style="fill:#262626;stroke:#262626;stroke-width:1.875;" x="134.175953" xlink:href="#mc222f17d3b" y="227.7"/>
      </g>
     </g>
     <g id="text_1">
      <!-- 0 -->
      <defs>
       <path d="M 4.15625 35.296875 
Q 4.15625 48 6.765625 55.734375 
Q 9.375 63.484375 14.515625 67.671875 
Q 19.671875 71.875 27.484375 71.875 
Q 33.25 71.875 37.59375 69.546875 
Q 41.9375 67.234375 44.765625 62.859375 
Q 47.609375 58.5 49.21875 52.21875 
Q 50.828125 45.953125 50.828125 35.296875 
Q 50.828125 22.703125 48.234375 14.96875 
Q 45.65625 7.234375 40.5 3 
Q 35.359375 -1.21875 27.484375 -1.21875 
Q 17.140625 -1.21875 11.234375 6.203125 
Q 4.15625 15.140625 4.15625 35.296875 
z
M 13.1875 35.296875 
Q 13.1875 17.671875 17.3125 11.828125 
Q 21.4375 6 27.484375 6 
Q 33.546875 6 37.671875 11.859375 
Q 41.796875 17.71875 41.796875 35.296875 
Q 41.796875 52.984375 37.671875 58.78125 
Q 33.546875 64.59375 27.390625 64.59375 
Q 21.34375 64.59375 17.71875 59.46875 
Q 13.1875 52.9375 13.1875 35.296875 
z
" id="ArialMT-48"/>
      </defs>
      <g style="fill:#262626;" transform="translate(129.588179 252.010391)scale(0.165 -0.165)">
       <use xlink:href="#ArialMT-48"/>
      </g>
     </g>
    </g>
    <g id="xtick_2">
     <g id="line2d_2">
      <g>
       <use style="fill:#262626;stroke:#262626;stroke-width:1.875;" x="188.956761" xlink:href="#mc222f17d3b" y="227.7"/>
      </g>
     </g>
     <g id="text_2">
      <!-- 100 -->
      <defs>
       <path d="M 37.25 0 
L 28.46875 0 
L 28.46875 56 
Q 25.296875 52.984375 20.140625 49.953125 
Q 14.984375 46.921875 10.890625 45.40625 
L 10.890625 53.90625 
Q 18.265625 57.375 23.78125 62.296875 
Q 29.296875 67.234375 31.59375 71.875 
L 37.25 71.875 
z
" id="ArialMT-49"/>
      </defs>
      <g style="fill:#262626;" transform="translate(175.193441 252.010391)scale(0.165 -0.165)">
       <use xlink:href="#ArialMT-49"/>
       <use x="55.615234" xlink:href="#ArialMT-48"/>
       <use x="111.230469" xlink:href="#ArialMT-48"/>
      </g>
     </g>
    </g>
    <g id="xtick_3">
     <g id="line2d_3">
      <g>
       <use style="fill:#262626;stroke:#262626;stroke-width:1.875;" x="243.73757" xlink:href="#mc222f17d3b" y="227.7"/>
      </g>
     </g>
     <g id="text_3">
      <!-- 200 -->
      <defs>
       <path d="M 50.34375 8.453125 
L 50.34375 0 
L 3.03125 0 
Q 2.9375 3.171875 4.046875 6.109375 
Q 5.859375 10.9375 9.828125 15.625 
Q 13.8125 20.3125 21.34375 26.46875 
Q 33.015625 36.03125 37.109375 41.625 
Q 41.21875 47.21875 41.21875 52.203125 
Q 41.21875 57.421875 37.46875 61 
Q 33.734375 64.59375 27.734375 64.59375 
Q 21.390625 64.59375 17.578125 60.78125 
Q 13.765625 56.984375 13.71875 50.25 
L 4.6875 51.171875 
Q 5.609375 61.28125 11.65625 66.578125 
Q 17.71875 71.875 27.9375 71.875 
Q 38.234375 71.875 44.234375 66.15625 
Q 50.25 60.453125 50.25 52 
Q 50.25 47.703125 48.484375 43.546875 
Q 46.734375 39.40625 42.65625 34.8125 
Q 38.578125 30.21875 29.109375 22.21875 
Q 21.1875 15.578125 18.9375 13.203125 
Q 16.703125 10.84375 15.234375 8.453125 
z
" id="ArialMT-50"/>
      </defs>
      <g style="fill:#262626;" transform="translate(229.97425 252.010391)scale(0.165 -0.165)">
       <use xlink:href="#ArialMT-50"/>
       <use x="55.615234" xlink:href="#ArialMT-48"/>
       <use x="111.230469" xlink:href="#ArialMT-48"/>
      </g>
     </g>
    </g>
    <g id="xtick_4">
     <g id="line2d_4">
      <g>
       <use style="fill:#262626;stroke:#262626;stroke-width:1.875;" x="298.518379" xlink:href="#mc222f17d3b" y="227.7"/>
      </g>
     </g>
     <g id="text_4">
      <!-- 300 -->
      <defs>
       <path d="M 4.203125 18.890625 
L 12.984375 20.0625 
Q 14.5 12.59375 18.140625 9.296875 
Q 21.78125 6 27 6 
Q 33.203125 6 37.46875 10.296875 
Q 41.75 14.59375 41.75 20.953125 
Q 41.75 27 37.796875 30.921875 
Q 33.84375 34.859375 27.734375 34.859375 
Q 25.25 34.859375 21.53125 33.890625 
L 22.515625 41.609375 
Q 23.390625 41.5 23.921875 41.5 
Q 29.546875 41.5 34.03125 44.421875 
Q 38.53125 47.359375 38.53125 53.46875 
Q 38.53125 58.296875 35.25 61.46875 
Q 31.984375 64.65625 26.8125 64.65625 
Q 21.6875 64.65625 18.265625 61.421875 
Q 14.84375 58.203125 13.875 51.765625 
L 5.078125 53.328125 
Q 6.6875 62.15625 12.390625 67.015625 
Q 18.109375 71.875 26.609375 71.875 
Q 32.46875 71.875 37.390625 69.359375 
Q 42.328125 66.84375 44.9375 62.5 
Q 47.5625 58.15625 47.5625 53.265625 
Q 47.5625 48.640625 45.0625 44.828125 
Q 42.578125 41.015625 37.703125 38.765625 
Q 44.046875 37.3125 47.5625 32.6875 
Q 51.078125 28.078125 51.078125 21.140625 
Q 51.078125 11.765625 44.234375 5.25 
Q 37.40625 -1.265625 26.953125 -1.265625 
Q 17.53125 -1.265625 11.296875 4.34375 
Q 5.078125 9.96875 4.203125 18.890625 
z
" id="ArialMT-51"/>
      </defs>
      <g style="fill:#262626;" transform="translate(284.755059 252.010391)scale(0.165 -0.165)">
       <use xlink:href="#ArialMT-51"/>
       <use x="55.615234" xlink:href="#ArialMT-48"/>
       <use x="111.230469" xlink:href="#ArialMT-48"/>
      </g>
     </g>
    </g>
    <g id="xtick_5">
     <g id="line2d_5">
      <g>
       <use style="fill:#262626;stroke:#262626;stroke-width:1.875;" x="353.299188" xlink:href="#mc222f17d3b" y="227.7"/>
      </g>
     </g>
     <g id="text_5">
      <!-- 400 -->
      <defs>
       <path d="M 32.328125 0 
L 32.328125 17.140625 
L 1.265625 17.140625 
L 1.265625 25.203125 
L 33.9375 71.578125 
L 41.109375 71.578125 
L 41.109375 25.203125 
L 50.78125 25.203125 
L 50.78125 17.140625 
L 41.109375 17.140625 
L 41.109375 0 
z
M 32.328125 25.203125 
L 32.328125 57.46875 
L 9.90625 25.203125 
z
" id="ArialMT-52"/>
      </defs>
      <g style="fill:#262626;" transform="translate(339.535867 252.010391)scale(0.165 -0.165)">
       <use xlink:href="#ArialMT-52"/>
       <use x="55.615234" xlink:href="#ArialMT-48"/>
       <use x="111.230469" xlink:href="#ArialMT-48"/>
      </g>
     </g>
    </g>
    <g id="xtick_6">
     <g id="line2d_6">
      <g>
       <use style="fill:#262626;stroke:#262626;stroke-width:1.875;" x="408.079996" xlink:href="#mc222f17d3b" y="227.7"/>
      </g>
     </g>
     <g id="text_6">
      <!-- 500 -->
      <defs>
       <path d="M 4.15625 18.75 
L 13.375 19.53125 
Q 14.40625 12.796875 18.140625 9.390625 
Q 21.875 6 27.15625 6 
Q 33.5 6 37.890625 10.78125 
Q 42.28125 15.578125 42.28125 23.484375 
Q 42.28125 31 38.0625 35.34375 
Q 33.84375 39.703125 27 39.703125 
Q 22.75 39.703125 19.328125 37.765625 
Q 15.921875 35.84375 13.96875 32.765625 
L 5.71875 33.84375 
L 12.640625 70.609375 
L 48.25 70.609375 
L 48.25 62.203125 
L 19.671875 62.203125 
L 15.828125 42.96875 
Q 22.265625 47.46875 29.34375 47.46875 
Q 38.71875 47.46875 45.15625 40.96875 
Q 51.609375 34.46875 51.609375 24.265625 
Q 51.609375 14.546875 45.953125 7.46875 
Q 39.0625 -1.21875 27.15625 -1.21875 
Q 17.390625 -1.21875 11.203125 4.25 
Q 5.03125 9.71875 4.15625 18.75 
z
" id="ArialMT-53"/>
      </defs>
      <g style="fill:#262626;" transform="translate(394.316676 252.010391)scale(0.165 -0.165)">
       <use xlink:href="#ArialMT-53"/>
       <use x="55.615234" xlink:href="#ArialMT-48"/>
       <use x="111.230469" xlink:href="#ArialMT-48"/>
      </g>
     </g>
    </g>
    <g id="text_7">
     <!-- Training Epoch -->
     <defs>
      <path d="M 25.921875 0 
L 25.921875 63.140625 
L 2.34375 63.140625 
L 2.34375 71.578125 
L 59.078125 71.578125 
L 59.078125 63.140625 
L 35.40625 63.140625 
L 35.40625 0 
z
" id="ArialMT-84"/>
      <path d="M 6.5 0 
L 6.5 51.859375 
L 14.40625 51.859375 
L 14.40625 44 
Q 17.4375 49.515625 20 51.265625 
Q 22.5625 53.03125 25.640625 53.03125 
Q 30.078125 53.03125 34.671875 50.203125 
L 31.640625 42.046875 
Q 28.421875 43.953125 25.203125 43.953125 
Q 22.3125 43.953125 20.015625 42.21875 
Q 17.71875 40.484375 16.75 37.40625 
Q 15.28125 32.71875 15.28125 27.15625 
L 15.28125 0 
z
" id="ArialMT-114"/>
      <path d="M 40.4375 6.390625 
Q 35.546875 2.25 31.03125 0.53125 
Q 26.515625 -1.171875 21.34375 -1.171875 
Q 12.796875 -1.171875 8.203125 3 
Q 3.609375 7.171875 3.609375 13.671875 
Q 3.609375 17.484375 5.34375 20.625 
Q 7.078125 23.78125 9.890625 25.6875 
Q 12.703125 27.59375 16.21875 28.5625 
Q 18.796875 29.25 24.03125 29.890625 
Q 34.671875 31.15625 39.703125 32.90625 
Q 39.75 34.71875 39.75 35.203125 
Q 39.75 40.578125 37.25 42.78125 
Q 33.890625 45.75 27.25 45.75 
Q 21.046875 45.75 18.09375 43.578125 
Q 15.140625 41.40625 13.71875 35.890625 
L 5.125 37.0625 
Q 6.296875 42.578125 8.984375 45.96875 
Q 11.671875 49.359375 16.75 51.1875 
Q 21.828125 53.03125 28.515625 53.03125 
Q 35.15625 53.03125 39.296875 51.46875 
Q 43.453125 49.90625 45.40625 47.53125 
Q 47.359375 45.171875 48.140625 41.546875 
Q 48.578125 39.3125 48.578125 33.453125 
L 48.578125 21.734375 
Q 48.578125 9.46875 49.140625 6.21875 
Q 49.703125 2.984375 51.375 0 
L 42.1875 0 
Q 40.828125 2.734375 40.4375 6.390625 
z
M 39.703125 26.03125 
Q 34.90625 24.078125 25.34375 22.703125 
Q 19.921875 21.921875 17.671875 20.9375 
Q 15.4375 19.96875 14.203125 18.09375 
Q 12.984375 16.21875 12.984375 13.921875 
Q 12.984375 10.40625 15.640625 8.0625 
Q 18.3125 5.71875 23.4375 5.71875 
Q 28.515625 5.71875 32.46875 7.9375 
Q 36.421875 10.15625 38.28125 14.015625 
Q 39.703125 17 39.703125 22.796875 
z
" id="ArialMT-97"/>
      <path d="M 6.640625 61.46875 
L 6.640625 71.578125 
L 15.4375 71.578125 
L 15.4375 61.46875 
z
M 6.640625 0 
L 6.640625 51.859375 
L 15.4375 51.859375 
L 15.4375 0 
z
" id="ArialMT-105"/>
      <path d="M 6.59375 0 
L 6.59375 51.859375 
L 14.5 51.859375 
L 14.5 44.484375 
Q 20.21875 53.03125 31 53.03125 
Q 35.6875 53.03125 39.625 51.34375 
Q 43.5625 49.65625 45.515625 46.921875 
Q 47.46875 44.1875 48.25 40.4375 
Q 48.734375 37.984375 48.734375 31.890625 
L 48.734375 0 
L 39.9375 0 
L 39.9375 31.546875 
Q 39.9375 36.921875 38.90625 39.578125 
Q 37.890625 42.234375 35.28125 43.8125 
Q 32.671875 45.40625 29.15625 45.40625 
Q 23.53125 45.40625 19.453125 41.84375 
Q 15.375 38.28125 15.375 28.328125 
L 15.375 0 
z
" id="ArialMT-110"/>
      <path d="M 4.984375 -4.296875 
L 13.53125 -5.5625 
Q 14.0625 -9.515625 16.5 -11.328125 
Q 19.78125 -13.765625 25.4375 -13.765625 
Q 31.546875 -13.765625 34.859375 -11.328125 
Q 38.1875 -8.890625 39.359375 -4.5 
Q 40.046875 -1.8125 39.984375 6.78125 
Q 34.234375 0 25.640625 0 
Q 14.9375 0 9.078125 7.71875 
Q 3.21875 15.4375 3.21875 26.21875 
Q 3.21875 33.640625 5.90625 39.90625 
Q 8.59375 46.1875 13.6875 49.609375 
Q 18.796875 53.03125 25.6875 53.03125 
Q 34.859375 53.03125 40.828125 45.609375 
L 40.828125 51.859375 
L 48.921875 51.859375 
L 48.921875 7.03125 
Q 48.921875 -5.078125 46.453125 -10.125 
Q 44 -15.1875 38.640625 -18.109375 
Q 33.296875 -21.046875 25.484375 -21.046875 
Q 16.21875 -21.046875 10.5 -16.875 
Q 4.78125 -12.703125 4.984375 -4.296875 
z
M 12.25 26.859375 
Q 12.25 16.65625 16.296875 11.96875 
Q 20.359375 7.28125 26.46875 7.28125 
Q 32.515625 7.28125 36.609375 11.9375 
Q 40.71875 16.609375 40.71875 26.5625 
Q 40.71875 36.078125 36.5 40.90625 
Q 32.28125 45.75 26.3125 45.75 
Q 20.453125 45.75 16.34375 40.984375 
Q 12.25 36.234375 12.25 26.859375 
z
" id="ArialMT-103"/>
      <path id="ArialMT-32"/>
      <path d="M 7.90625 0 
L 7.90625 71.578125 
L 59.671875 71.578125 
L 59.671875 63.140625 
L 17.390625 63.140625 
L 17.390625 41.21875 
L 56.984375 41.21875 
L 56.984375 32.8125 
L 17.390625 32.8125 
L 17.390625 8.453125 
L 61.328125 8.453125 
L 61.328125 0 
z
" id="ArialMT-69"/>
      <path d="M 6.59375 -19.875 
L 6.59375 51.859375 
L 14.59375 51.859375 
L 14.59375 45.125 
Q 17.4375 49.078125 21 51.046875 
Q 24.5625 53.03125 29.640625 53.03125 
Q 36.28125 53.03125 41.359375 49.609375 
Q 46.4375 46.1875 49.015625 39.953125 
Q 51.609375 33.734375 51.609375 26.3125 
Q 51.609375 18.359375 48.75 11.984375 
Q 45.90625 5.609375 40.453125 2.21875 
Q 35.015625 -1.171875 29 -1.171875 
Q 24.609375 -1.171875 21.109375 0.6875 
Q 17.625 2.546875 15.375 5.375 
L 15.375 -19.875 
z
M 14.546875 25.640625 
Q 14.546875 15.625 18.59375 10.84375 
Q 22.65625 6.0625 28.421875 6.0625 
Q 34.28125 6.0625 38.453125 11.015625 
Q 42.625 15.96875 42.625 26.375 
Q 42.625 36.28125 38.546875 41.203125 
Q 34.46875 46.140625 28.8125 46.140625 
Q 23.1875 46.140625 18.859375 40.890625 
Q 14.546875 35.640625 14.546875 25.640625 
z
" id="ArialMT-112"/>
      <path d="M 3.328125 25.921875 
Q 3.328125 40.328125 11.328125 47.265625 
Q 18.015625 53.03125 27.640625 53.03125 
Q 38.328125 53.03125 45.109375 46.015625 
Q 51.90625 39.015625 51.90625 26.65625 
Q 51.90625 16.65625 48.90625 10.90625 
Q 45.90625 5.171875 40.15625 2 
Q 34.421875 -1.171875 27.640625 -1.171875 
Q 16.75 -1.171875 10.03125 5.8125 
Q 3.328125 12.796875 3.328125 25.921875 
z
M 12.359375 25.921875 
Q 12.359375 15.96875 16.703125 11.015625 
Q 21.046875 6.0625 27.640625 6.0625 
Q 34.1875 6.0625 38.53125 11.03125 
Q 42.875 16.015625 42.875 26.21875 
Q 42.875 35.84375 38.5 40.796875 
Q 34.125 45.75 27.640625 45.75 
Q 21.046875 45.75 16.703125 40.8125 
Q 12.359375 35.890625 12.359375 25.921875 
z
" id="ArialMT-111"/>
      <path d="M 40.4375 19 
L 49.078125 17.875 
Q 47.65625 8.9375 41.8125 3.875 
Q 35.984375 -1.171875 27.484375 -1.171875 
Q 16.84375 -1.171875 10.375 5.78125 
Q 3.90625 12.75 3.90625 25.734375 
Q 3.90625 34.125 6.6875 40.421875 
Q 9.46875 46.734375 15.15625 49.875 
Q 20.84375 53.03125 27.546875 53.03125 
Q 35.984375 53.03125 41.359375 48.75 
Q 46.734375 44.484375 48.25 36.625 
L 39.703125 35.296875 
Q 38.484375 40.53125 35.375 43.15625 
Q 32.28125 45.796875 27.875 45.796875 
Q 21.234375 45.796875 17.078125 41.03125 
Q 12.9375 36.28125 12.9375 25.984375 
Q 12.9375 15.53125 16.9375 10.796875 
Q 20.953125 6.0625 27.390625 6.0625 
Q 32.5625 6.0625 36.03125 9.234375 
Q 39.5 12.40625 40.4375 19 
z
" id="ArialMT-99"/>
      <path d="M 6.59375 0 
L 6.59375 71.578125 
L 15.375 71.578125 
L 15.375 45.90625 
Q 21.53125 53.03125 30.90625 53.03125 
Q 36.671875 53.03125 40.921875 50.75 
Q 45.171875 48.484375 47 44.484375 
Q 48.828125 40.484375 48.828125 32.859375 
L 48.828125 0 
L 40.046875 0 
L 40.046875 32.859375 
Q 40.046875 39.453125 37.1875 42.453125 
Q 34.328125 45.453125 29.109375 45.453125 
Q 25.203125 45.453125 21.75 43.421875 
Q 18.3125 41.40625 16.84375 37.9375 
Q 15.375 34.46875 15.375 28.375 
L 15.375 0 
z
" id="ArialMT-104"/>
     </defs>
     <g style="fill:#262626;" transform="translate(210.660946 272.173828)scale(0.18 -0.18)">
      <use xlink:href="#ArialMT-84"/>
      <use x="57.333984" xlink:href="#ArialMT-114"/>
      <use x="90.634766" xlink:href="#ArialMT-97"/>
      <use x="146.25" xlink:href="#ArialMT-105"/>
      <use x="168.466797" xlink:href="#ArialMT-110"/>
      <use x="224.082031" xlink:href="#ArialMT-105"/>
      <use x="246.298828" xlink:href="#ArialMT-110"/>
      <use x="301.914062" xlink:href="#ArialMT-103"/>
      <use x="357.529297" xlink:href="#ArialMT-32"/>
      <use x="385.3125" xlink:href="#ArialMT-69"/>
      <use x="452.011719" xlink:href="#ArialMT-112"/>
      <use x="507.626953" xlink:href="#ArialMT-111"/>
      <use x="563.242188" xlink:href="#ArialMT-99"/>
      <use x="613.242188" xlink:href="#ArialMT-104"/>
     </g>
    </g>
   </g>
   <g id="matplotlib.axis_2">
    <g id="ytick_1">
     <g id="line2d_7">
      <defs>
       <path d="M 0 0 
L -9 0 
" id="mb17407e313" style="stroke:#262626;stroke-width:1.875;"/>
      </defs>
      <g>
       <use style="fill:#262626;stroke:#262626;stroke-width:1.875;" x="120.508141" xlink:href="#mb17407e313" y="124.474867"/>
      </g>
     </g>
     <g id="text_8">
      <!-- $\mathdefault{10^{-1}}$ -->
      <defs>
       <path d="M 52.828125 31.203125 
L 5.5625 31.203125 
L 5.5625 39.40625 
L 52.828125 39.40625 
z
" id="ArialMT-8722"/>
      </defs>
      <g style="fill:#262626;" transform="translate(75.338141 132.98268)scale(0.165 -0.165)">
       <use transform="translate(0 0.99375)" xlink:href="#ArialMT-49"/>
       <use transform="translate(55.615234 0.99375)" xlink:href="#ArialMT-48"/>
       <use transform="translate(112.972813 70.6875)scale(0.7)" xlink:href="#ArialMT-8722"/>
       <use transform="translate(153.851719 70.6875)scale(0.7)" xlink:href="#ArialMT-49"/>
      </g>
     </g>
    </g>
    <g id="ytick_2">
     <g id="line2d_8">
      <defs>
       <path d="M 0 0 
L -6 0 
" id="m9b8983f8aa" style="stroke:#262626;stroke-width:1.5;"/>
      </defs>
      <g>
       <use style="fill:#262626;stroke:#262626;stroke-width:1.5;" x="120.508141" xlink:href="#m9b8983f8aa" y="227.7"/>
      </g>
     </g>
    </g>
    <g id="ytick_3">
     <g id="line2d_9">
      <g>
       <use style="fill:#262626;stroke:#262626;stroke-width:1.5;" x="120.508141" xlink:href="#m9b8983f8aa" y="200.548239"/>
      </g>
     </g>
     <g id="text_9">
      <!-- $\mathdefault{6\times10^{-2}}$ -->
      <defs>
       <path d="M 49.75 54.046875 
L 41.015625 53.375 
Q 39.84375 58.546875 37.703125 60.890625 
Q 34.125 64.65625 28.90625 64.65625 
Q 24.703125 64.65625 21.53125 62.3125 
Q 17.390625 59.28125 14.984375 53.46875 
Q 12.59375 47.65625 12.5 36.921875 
Q 15.671875 41.75 20.265625 44.09375 
Q 24.859375 46.4375 29.890625 46.4375 
Q 38.671875 46.4375 44.84375 39.96875 
Q 51.03125 33.5 51.03125 23.25 
Q 51.03125 16.5 48.125 10.71875 
Q 45.21875 4.9375 40.140625 1.859375 
Q 35.0625 -1.21875 28.609375 -1.21875 
Q 17.625 -1.21875 10.6875 6.859375 
Q 3.765625 14.9375 3.765625 33.5 
Q 3.765625 54.25 11.421875 63.671875 
Q 18.109375 71.875 29.4375 71.875 
Q 37.890625 71.875 43.28125 67.140625 
Q 48.6875 62.40625 49.75 54.046875 
z
M 13.875 23.1875 
Q 13.875 18.65625 15.796875 14.5 
Q 17.71875 10.359375 21.1875 8.171875 
Q 24.65625 6 28.46875 6 
Q 34.03125 6 38.03125 10.484375 
Q 42.046875 14.984375 42.046875 22.703125 
Q 42.046875 30.125 38.078125 34.390625 
Q 34.125 38.671875 28.125 38.671875 
Q 22.171875 38.671875 18.015625 34.390625 
Q 13.875 30.125 13.875 23.1875 
z
" id="ArialMT-54"/>
       <path d="M 7.859375 19.96875 
L 23.25 35.359375 
L 7.90625 50.6875 
L 13.875 56.640625 
L 29.203125 41.3125 
L 44.484375 56.59375 
L 50.34375 50.6875 
L 35.109375 35.40625 
L 50.4375 20.0625 
L 44.484375 14.109375 
L 29.15625 29.4375 
L 13.765625 14.0625 
z
" id="ArialMT-215"/>
      </defs>
      <g style="fill:#262626;" transform="translate(54.018141 209.056051)scale(0.165 -0.165)">
       <use transform="translate(0 0.99375)" xlink:href="#ArialMT-54"/>
       <use transform="translate(72.275391 0.99375)" xlink:href="#ArialMT-215"/>
       <use transform="translate(147.333984 0.99375)" xlink:href="#ArialMT-49"/>
       <use transform="translate(202.949219 0.99375)" xlink:href="#ArialMT-48"/>
       <use transform="translate(260.306797 70.6875)scale(0.7)" xlink:href="#ArialMT-8722"/>
       <use transform="translate(301.185703 70.6875)scale(0.7)" xlink:href="#ArialMT-50"/>
      </g>
     </g>
    </g>
    <g id="ytick_4">
     <g id="line2d_10">
      <g>
       <use style="fill:#262626;stroke:#262626;stroke-width:1.5;" x="120.508141" xlink:href="#m9b8983f8aa" y="177.591751"/>
      </g>
     </g>
    </g>
    <g id="ytick_5">
     <g id="line2d_11">
      <g>
       <use style="fill:#262626;stroke:#262626;stroke-width:1.5;" x="120.508141" xlink:href="#m9b8983f8aa" y="157.705938"/>
      </g>
     </g>
    </g>
    <g id="ytick_6">
     <g id="line2d_12">
      <g>
       <use style="fill:#262626;stroke:#262626;stroke-width:1.5;" x="120.508141" xlink:href="#m9b8983f8aa" y="140.165407"/>
      </g>
     </g>
    </g>
    <g id="ytick_7">
     <g id="line2d_13">
      <g>
       <use style="fill:#262626;stroke:#262626;stroke-width:1.5;" x="120.508141" xlink:href="#m9b8983f8aa" y="21.249734"/>
      </g>
     </g>
     <g id="text_10">
      <!-- $\mathdefault{2\times10^{-1}}$ -->
      <g style="fill:#262626;" transform="translate(54.018141 29.757547)scale(0.165 -0.165)">
       <use transform="translate(0 0.99375)" xlink:href="#ArialMT-50"/>
       <use transform="translate(72.275391 0.99375)" xlink:href="#ArialMT-215"/>
       <use transform="translate(147.333984 0.99375)" xlink:href="#ArialMT-49"/>
       <use transform="translate(202.949219 0.99375)" xlink:href="#ArialMT-48"/>
       <use transform="translate(260.306797 70.6875)scale(0.7)" xlink:href="#ArialMT-8722"/>
       <use transform="translate(301.185703 70.6875)scale(0.7)" xlink:href="#ArialMT-49"/>
      </g>
     </g>
    </g>
    <g id="text_11">
     <!-- Mean Absolute Error -->
     <defs>
      <path d="M 7.421875 0 
L 7.421875 71.578125 
L 21.6875 71.578125 
L 38.625 20.90625 
Q 40.96875 13.8125 42.046875 10.296875 
Q 43.265625 14.203125 45.84375 21.78125 
L 62.984375 71.578125 
L 75.734375 71.578125 
L 75.734375 0 
L 66.609375 0 
L 66.609375 59.90625 
L 45.796875 0 
L 37.25 0 
L 16.546875 60.9375 
L 16.546875 0 
z
" id="ArialMT-77"/>
      <path d="M 42.09375 16.703125 
L 51.171875 15.578125 
Q 49.03125 7.625 43.21875 3.21875 
Q 37.40625 -1.171875 28.375 -1.171875 
Q 17 -1.171875 10.328125 5.828125 
Q 3.65625 12.84375 3.65625 25.484375 
Q 3.65625 38.578125 10.390625 45.796875 
Q 17.140625 53.03125 27.875 53.03125 
Q 38.28125 53.03125 44.875 45.953125 
Q 51.46875 38.875 51.46875 26.03125 
Q 51.46875 25.25 51.421875 23.6875 
L 12.75 23.6875 
Q 13.234375 15.140625 17.578125 10.59375 
Q 21.921875 6.0625 28.421875 6.0625 
Q 33.25 6.0625 36.671875 8.59375 
Q 40.09375 11.140625 42.09375 16.703125 
z
M 13.234375 30.90625 
L 42.1875 30.90625 
Q 41.609375 37.453125 38.875 40.71875 
Q 34.671875 45.796875 27.984375 45.796875 
Q 21.921875 45.796875 17.796875 41.75 
Q 13.671875 37.703125 13.234375 30.90625 
z
" id="ArialMT-101"/>
      <path d="M -0.140625 0 
L 27.34375 71.578125 
L 37.546875 71.578125 
L 66.84375 0 
L 56.0625 0 
L 47.703125 21.6875 
L 17.78125 21.6875 
L 9.90625 0 
z
M 20.515625 29.390625 
L 44.78125 29.390625 
L 37.3125 49.21875 
Q 33.890625 58.25 32.234375 64.0625 
Q 30.859375 57.171875 28.375 50.390625 
z
" id="ArialMT-65"/>
      <path d="M 14.703125 0 
L 6.546875 0 
L 6.546875 71.578125 
L 15.328125 71.578125 
L 15.328125 46.046875 
Q 20.90625 53.03125 29.546875 53.03125 
Q 34.328125 53.03125 38.59375 51.09375 
Q 42.875 49.171875 45.625 45.671875 
Q 48.390625 42.1875 49.953125 37.25 
Q 51.515625 32.328125 51.515625 26.703125 
Q 51.515625 13.375 44.921875 6.09375 
Q 38.328125 -1.171875 29.109375 -1.171875 
Q 19.921875 -1.171875 14.703125 6.5 
z
M 14.59375 26.3125 
Q 14.59375 17 17.140625 12.84375 
Q 21.296875 6.0625 28.375 6.0625 
Q 34.125 6.0625 38.328125 11.0625 
Q 42.53125 16.0625 42.53125 25.984375 
Q 42.53125 36.140625 38.5 40.96875 
Q 34.46875 45.796875 28.765625 45.796875 
Q 23 45.796875 18.796875 40.796875 
Q 14.59375 35.796875 14.59375 26.3125 
z
" id="ArialMT-98"/>
      <path d="M 3.078125 15.484375 
L 11.765625 16.84375 
Q 12.5 11.625 15.84375 8.84375 
Q 19.1875 6.0625 25.203125 6.0625 
Q 31.25 6.0625 34.171875 8.515625 
Q 37.109375 10.984375 37.109375 14.3125 
Q 37.109375 17.28125 34.515625 19 
Q 32.71875 20.171875 25.53125 21.96875 
Q 15.875 24.421875 12.140625 26.203125 
Q 8.40625 27.984375 6.46875 31.125 
Q 4.546875 34.28125 4.546875 38.09375 
Q 4.546875 41.546875 6.125 44.5 
Q 7.71875 47.46875 10.453125 49.421875 
Q 12.5 50.921875 16.03125 51.96875 
Q 19.578125 53.03125 23.640625 53.03125 
Q 29.734375 53.03125 34.34375 51.265625 
Q 38.96875 49.515625 41.15625 46.5 
Q 43.359375 43.5 44.1875 38.484375 
L 35.59375 37.3125 
Q 35.015625 41.3125 32.203125 43.546875 
Q 29.390625 45.796875 24.265625 45.796875 
Q 18.21875 45.796875 15.625 43.796875 
Q 13.03125 41.796875 13.03125 39.109375 
Q 13.03125 37.40625 14.109375 36.03125 
Q 15.1875 34.625 17.484375 33.6875 
Q 18.796875 33.203125 25.25 31.453125 
Q 34.578125 28.953125 38.25 27.359375 
Q 41.9375 25.78125 44.03125 22.75 
Q 46.140625 19.734375 46.140625 15.234375 
Q 46.140625 10.84375 43.578125 6.953125 
Q 41.015625 3.078125 36.171875 0.953125 
Q 31.34375 -1.171875 25.25 -1.171875 
Q 15.140625 -1.171875 9.84375 3.03125 
Q 4.546875 7.234375 3.078125 15.484375 
z
" id="ArialMT-115"/>
      <path d="M 6.390625 0 
L 6.390625 71.578125 
L 15.1875 71.578125 
L 15.1875 0 
z
" id="ArialMT-108"/>
      <path d="M 40.578125 0 
L 40.578125 7.625 
Q 34.515625 -1.171875 24.125 -1.171875 
Q 19.53125 -1.171875 15.546875 0.578125 
Q 11.578125 2.34375 9.640625 5 
Q 7.71875 7.671875 6.9375 11.53125 
Q 6.390625 14.109375 6.390625 19.734375 
L 6.390625 51.859375 
L 15.1875 51.859375 
L 15.1875 23.09375 
Q 15.1875 16.21875 15.71875 13.8125 
Q 16.546875 10.359375 19.234375 8.375 
Q 21.921875 6.390625 25.875 6.390625 
Q 29.828125 6.390625 33.296875 8.421875 
Q 36.765625 10.453125 38.203125 13.9375 
Q 39.65625 17.4375 39.65625 24.078125 
L 39.65625 51.859375 
L 48.4375 51.859375 
L 48.4375 0 
z
" id="ArialMT-117"/>
      <path d="M 25.78125 7.859375 
L 27.046875 0.09375 
Q 23.34375 -0.6875 20.40625 -0.6875 
Q 15.625 -0.6875 12.984375 0.828125 
Q 10.359375 2.34375 9.28125 4.8125 
Q 8.203125 7.28125 8.203125 15.1875 
L 8.203125 45.015625 
L 1.765625 45.015625 
L 1.765625 51.859375 
L 8.203125 51.859375 
L 8.203125 64.703125 
L 16.9375 69.96875 
L 16.9375 51.859375 
L 25.78125 51.859375 
L 25.78125 45.015625 
L 16.9375 45.015625 
L 16.9375 14.703125 
Q 16.9375 10.9375 17.40625 9.859375 
Q 17.875 8.796875 18.921875 8.15625 
Q 19.96875 7.515625 21.921875 7.515625 
Q 23.390625 7.515625 25.78125 7.859375 
z
" id="ArialMT-116"/>
     </defs>
     <g style="fill:#262626;" transform="translate(27.402266 206.51268)rotate(-90)scale(0.18 -0.18)">
      <use xlink:href="#ArialMT-77"/>
      <use x="83.300781" xlink:href="#ArialMT-101"/>
      <use x="138.916016" xlink:href="#ArialMT-97"/>
      <use x="194.53125" xlink:href="#ArialMT-110"/>
      <use x="250.146484" xlink:href="#ArialMT-32"/>
      <use x="272.429688" xlink:href="#ArialMT-65"/>
      <use x="339.128906" xlink:href="#ArialMT-98"/>
      <use x="394.744141" xlink:href="#ArialMT-115"/>
      <use x="444.744141" xlink:href="#ArialMT-111"/>
      <use x="500.359375" xlink:href="#ArialMT-108"/>
      <use x="522.576172" xlink:href="#ArialMT-117"/>
      <use x="578.191406" xlink:href="#ArialMT-116"/>
      <use x="605.974609" xlink:href="#ArialMT-101"/>
      <use x="661.589844" xlink:href="#ArialMT-32"/>
      <use x="689.373047" xlink:href="#ArialMT-69"/>
      <use x="756.072266" xlink:href="#ArialMT-114"/>
      <use x="789.373047" xlink:href="#ArialMT-114"/>
      <use x="822.673828" xlink:href="#ArialMT-111"/>
      <use x="878.289062" xlink:href="#ArialMT-114"/>
     </g>
     <!-- kcal/mol -->
     <defs>
      <path d="M 6.640625 0 
L 6.640625 71.578125 
L 15.4375 71.578125 
L 15.4375 30.765625 
L 36.234375 51.859375 
L 47.609375 51.859375 
L 27.78125 32.625 
L 49.609375 0 
L 38.765625 0 
L 21.625 26.515625 
L 15.4375 20.5625 
L 15.4375 0 
z
" id="ArialMT-107"/>
      <path d="M 0 -1.21875 
L 20.75 72.796875 
L 27.78125 72.796875 
L 7.078125 -1.21875 
z
" id="ArialMT-47"/>
      <path d="M 6.59375 0 
L 6.59375 51.859375 
L 14.453125 51.859375 
L 14.453125 44.578125 
Q 16.890625 48.390625 20.9375 50.703125 
Q 25 53.03125 30.171875 53.03125 
Q 35.9375 53.03125 39.625 50.640625 
Q 43.3125 48.25 44.828125 43.953125 
Q 50.984375 53.03125 60.84375 53.03125 
Q 68.5625 53.03125 72.703125 48.75 
Q 76.859375 44.484375 76.859375 35.59375 
L 76.859375 0 
L 68.109375 0 
L 68.109375 32.671875 
Q 68.109375 37.9375 67.25 40.25 
Q 66.40625 42.578125 64.15625 43.984375 
Q 61.921875 45.40625 58.890625 45.40625 
Q 53.421875 45.40625 49.796875 41.765625 
Q 46.1875 38.140625 46.1875 30.125 
L 46.1875 0 
L 37.40625 0 
L 37.40625 33.6875 
Q 37.40625 39.546875 35.25 42.46875 
Q 33.109375 45.40625 28.21875 45.40625 
Q 24.515625 45.40625 21.359375 43.453125 
Q 18.21875 41.5 16.796875 37.734375 
Q 15.375 33.984375 15.375 26.90625 
L 15.375 0 
z
" id="ArialMT-109"/>
     </defs>
     <g style="fill:#262626;" transform="translate(46.440641 157.480961)rotate(-90)scale(0.18 -0.18)">
      <use xlink:href="#ArialMT-107"/>
      <use x="50" xlink:href="#ArialMT-99"/>
      <use x="100" xlink:href="#ArialMT-97"/>
      <use x="155.615234" xlink:href="#ArialMT-108"/>
      <use x="177.832031" xlink:href="#ArialMT-47"/>
      <use x="205.615234" xlink:href="#ArialMT-109"/>
      <use x="288.916016" xlink:href="#ArialMT-111"/>
      <use x="344.53125" xlink:href="#ArialMT-108"/>
     </g>
    </g>
   </g>
   <g id="line2d_14">
    <path clip-path="url(#p739874be1d)" d="M 135.889236 -1 
L 136.367185 14.81359 
L 136.914993 19.103822 
L 137.462801 30.506487 
L 138.010609 29.884365 
L 138.558417 45.13353 
L 139.106226 52.115954 
L 139.654034 52.303974 
L 140.201842 53.807795 
L 140.74965 62.283862 
L 141.297458 57.883308 
L 141.845266 68.565872 
L 142.393074 72.598547 
L 142.940882 73.433653 
L 143.48869 77.840203 
L 144.036498 85.727521 
L 144.584306 79.61532 
L 145.132115 87.527704 
L 145.679923 83.882187 
L 146.227731 87.303116 
L 146.775539 94.709095 
L 147.323347 89.651766 
L 147.871155 94.571656 
L 148.418963 101.123031 
L 148.966771 99.364023 
L 149.514579 98.486571 
L 150.062387 103.7794 
L 150.610195 101.385489 
L 151.158003 110.212568 
L 151.705812 109.729016 
L 152.25362 107.732304 
L 152.801428 113.340705 
L 153.349236 105.596851 
L 153.897044 114.808029 
L 154.444852 110.742826 
L 154.99266 114.462093 
L 155.540468 108.158752 
L 156.088276 113.890665 
L 156.636084 117.469847 
L 157.183892 116.917462 
L 157.731701 122.524704 
L 158.279509 120.663159 
L 158.827317 125.529937 
L 159.922933 124.179158 
L 160.470741 123.918588 
L 161.018549 126.203189 
L 161.566357 123.997842 
L 162.114165 129.205255 
L 162.661973 129.016539 
L 163.209781 131.243335 
L 163.757589 134.123231 
L 164.305398 124.379444 
L 164.853206 132.65712 
L 165.401014 128.233261 
L 165.948822 134.054189 
L 166.49663 132.43033 
L 167.044438 122.931875 
L 167.592246 134.182005 
L 168.140054 138.967782 
L 168.687862 135.035971 
L 169.783478 143.053345 
L 170.331287 137.561736 
L 170.879095 137.654189 
L 171.426903 141.733667 
L 171.974711 139.752705 
L 172.522519 136.850758 
L 173.070327 142.579249 
L 173.618135 136.100041 
L 174.165943 135.517758 
L 174.713751 143.906586 
L 175.261559 137.963401 
L 175.809367 142.413224 
L 176.357175 139.061772 
L 176.904984 149.797259 
L 177.452792 144.558989 
L 178.0006 143.704965 
L 178.548408 142.223328 
L 179.096216 147.888808 
L 179.644024 145.452888 
L 180.191832 149.447342 
L 180.73964 150.760578 
L 181.287448 144.275414 
L 181.835256 145.610516 
L 182.383064 149.007295 
L 182.930873 153.155081 
L 183.478681 149.453933 
L 184.026489 147.779783 
L 184.574297 150.135315 
L 185.122105 153.729776 
L 185.669913 154.75421 
L 186.217721 146.465714 
L 186.765529 151.335868 
L 187.313337 146.739802 
L 187.861145 155.005544 
L 188.408953 155.755228 
L 189.50457 153.027446 
L 190.052378 152.202362 
L 190.600186 155.059927 
L 191.147994 154.523238 
L 191.695802 158.634448 
L 192.24361 155.439564 
L 192.791418 155.113741 
L 193.339226 156.531182 
L 193.887034 157.066785 
L 194.434842 157.020853 
L 194.98265 159.197011 
L 195.530459 157.943123 
L 196.078267 159.754854 
L 196.626075 155.170005 
L 197.173883 158.848729 
L 197.721691 154.91997 
L 198.269499 160.681413 
L 198.817307 158.909926 
L 199.365115 160.252243 
L 199.912923 160.143595 
L 200.460731 161.30029 
L 201.008539 157.212729 
L 201.556347 161.200064 
L 202.104156 160.99037 
L 202.651964 161.225371 
L 203.199772 162.26901 
L 203.74758 160.848882 
L 204.295388 156.427309 
L 204.843196 159.84237 
L 205.391004 161.825335 
L 205.938812 163.216706 
L 206.48662 159.706895 
L 207.034428 164.354083 
L 207.582236 164.039326 
L 208.130045 165.97376 
L 208.677853 165.664071 
L 209.225661 164.693401 
L 209.773469 158.124474 
L 210.321277 164.400079 
L 210.869085 164.215076 
L 211.416893 162.224799 
L 211.964701 165.252091 
L 212.512509 164.594357 
L 213.060317 162.733247 
L 213.608125 168.57635 
L 214.155933 165.653307 
L 214.703742 167.603983 
L 215.25155 165.170824 
L 215.799358 165.132453 
L 216.347166 169.932362 
L 216.894974 165.808336 
L 217.442782 165.741423 
L 217.99059 168.044562 
L 218.538398 167.819659 
L 219.086206 169.789767 
L 219.634014 168.888148 
L 220.181822 170.125422 
L 220.729631 165.847252 
L 221.277439 168.846636 
L 221.825247 167.688351 
L 222.373055 169.062771 
L 222.920863 167.63749 
L 223.468671 165.234124 
L 224.016479 169.557665 
L 224.564287 169.86377 
L 225.112095 169.93094 
L 225.659903 172.547649 
L 226.207711 170.732949 
L 226.755519 170.324124 
L 227.303328 171.42836 
L 227.851136 168.5201 
L 228.398944 172.568847 
L 228.946752 166.251046 
L 229.49456 172.565273 
L 230.042368 170.01454 
L 230.590176 170.600887 
L 231.137984 173.770753 
L 231.685792 171.287834 
L 232.2336 171.340525 
L 232.781408 168.585218 
L 233.877025 175.565112 
L 234.972641 170.935475 
L 235.520449 174.558571 
L 236.068257 170.540412 
L 237.163873 173.841281 
L 237.711681 169.954845 
L 238.259489 173.647901 
L 238.807297 168.703465 
L 239.355106 176.387224 
L 239.902914 172.451481 
L 240.450722 172.807727 
L 240.99853 177.177896 
L 241.546338 174.506246 
L 242.094146 175.089279 
L 242.641954 173.316174 
L 243.189762 177.283064 
L 243.73757 176.154968 
L 244.285378 171.722074 
L 244.833186 175.742602 
L 245.380994 175.40145 
L 245.928803 175.774214 
L 246.476611 175.638446 
L 247.024419 175.191586 
L 247.572227 177.710391 
L 248.120035 174.384034 
L 248.667843 172.704106 
L 249.215651 176.087455 
L 249.763459 173.380488 
L 250.311267 176.973953 
L 250.859075 176.032406 
L 251.406883 177.645899 
L 251.954692 176.15096 
L 252.5025 175.210413 
L 253.050308 170.347413 
L 253.598116 177.666515 
L 254.145924 179.674727 
L 254.693732 177.902292 
L 255.24154 172.874472 
L 256.337156 180.576625 
L 256.884964 177.173637 
L 257.432772 176.431983 
L 257.98058 179.353381 
L 258.528389 177.354319 
L 259.624005 178.152831 
L 260.171813 178.336798 
L 260.719621 180.712455 
L 261.267429 177.968795 
L 261.815237 177.5467 
L 262.363045 179.353386 
L 262.910853 178.206193 
L 263.458661 175.523354 
L 264.006469 179.965372 
L 264.554278 177.451636 
L 265.102086 180.705349 
L 265.649894 180.615475 
L 266.197702 178.28157 
L 266.74551 179.760787 
L 267.293318 179.436427 
L 267.841126 178.187132 
L 268.388934 181.488382 
L 268.936742 178.984077 
L 269.48455 180.149011 
L 270.032358 177.532772 
L 270.580166 181.395178 
L 271.127975 179.921856 
L 271.675783 179.961179 
L 272.223591 179.383402 
L 272.771399 179.606585 
L 273.319207 178.310444 
L 273.867015 181.14757 
L 274.414823 179.899006 
L 275.510439 181.587332 
L 276.058247 180.539727 
L 276.606055 182.276815 
L 277.153864 181.019216 
L 277.701672 183.791268 
L 278.24948 176.960603 
L 278.797288 182.89828 
L 279.345096 179.040841 
L 279.892904 181.583488 
L 280.440712 182.846375 
L 280.98852 180.229458 
L 281.536328 181.782735 
L 282.084136 181.308884 
L 282.631944 179.871452 
L 283.179752 179.472508 
L 283.727561 181.519105 
L 284.275369 181.9402 
L 284.823177 182.682908 
L 285.370985 180.79499 
L 285.918793 182.9277 
L 286.466601 181.895488 
L 287.014409 181.61526 
L 287.562217 184.481214 
L 288.110025 182.106053 
L 288.657833 181.457681 
L 289.75345 182.988657 
L 290.301258 181.624224 
L 290.849066 183.068646 
L 291.396874 184.124944 
L 291.944682 182.840375 
L 292.49249 180.116892 
L 293.040298 182.073981 
L 293.588106 181.506322 
L 294.135914 181.19469 
L 294.683722 183.977799 
L 295.23153 183.040087 
L 295.779338 186.791153 
L 296.327147 182.760102 
L 297.422763 184.091557 
L 297.970571 182.470575 
L 298.518379 184.283029 
L 299.066187 183.992908 
L 299.613995 184.045839 
L 300.709611 185.327007 
L 301.257419 185.473847 
L 301.805227 181.139104 
L 302.353036 186.445666 
L 302.900844 183.876848 
L 303.448652 182.528379 
L 303.99646 184.137995 
L 304.544268 183.017486 
L 305.092076 184.083726 
L 305.639884 183.99892 
L 306.187692 186.147755 
L 306.7355 184.18088 
L 307.283308 184.575711 
L 307.831116 184.064931 
L 308.378924 185.019794 
L 308.926733 188.352167 
L 309.474541 186.363926 
L 310.022349 181.532738 
L 310.570157 182.941686 
L 311.117965 185.591538 
L 311.665773 186.279138 
L 312.213581 187.878615 
L 312.761389 185.037836 
L 313.309197 184.496319 
L 313.857005 186.321333 
L 314.404813 186.25036 
L 314.952622 183.255452 
L 315.50043 183.81457 
L 316.048238 187.283574 
L 316.596046 186.265853 
L 317.143854 184.913549 
L 317.691662 186.995202 
L 318.23947 186.676166 
L 318.787278 186.094748 
L 319.335086 188.202355 
L 319.882894 187.724562 
L 320.430702 185.64962 
L 320.97851 185.784429 
L 321.526319 187.856893 
L 322.074127 186.477511 
L 322.621935 188.84895 
L 323.169743 184.56217 
L 323.717551 187.283488 
L 324.265359 186.417415 
L 324.813167 185.815641 
L 325.360975 187.371855 
L 325.908783 186.557169 
L 326.456591 187.142844 
L 327.004399 186.295457 
L 327.552208 185.025696 
L 328.647824 188.525219 
L 329.195632 187.602194 
L 329.74344 188.903096 
L 330.291248 187.403574 
L 330.839056 186.811038 
L 331.386864 187.260674 
L 331.934672 188.088801 
L 332.48248 186.427753 
L 333.030288 188.708033 
L 333.578096 187.593173 
L 334.125905 189.326032 
L 334.673713 188.606132 
L 335.221521 189.05207 
L 335.769329 190.000905 
L 336.317137 187.669771 
L 336.864945 188.646395 
L 337.412753 187.595406 
L 337.960561 188.425654 
L 338.508369 188.333279 
L 339.056177 187.449093 
L 339.603985 190.283147 
L 340.151794 188.547122 
L 340.699602 190.952117 
L 341.24741 187.571423 
L 341.795218 187.914883 
L 342.343026 189.122964 
L 342.890834 191.127151 
L 343.98645 186.553627 
L 344.534258 187.434276 
L 345.082066 190.018123 
L 345.629874 189.243188 
L 346.177682 187.839355 
L 346.725491 189.13952 
L 347.273299 187.7728 
L 347.821107 189.609278 
L 348.368915 191.019297 
L 348.916723 188.175972 
L 349.464531 190.27578 
L 350.012339 189.056768 
L 350.560147 188.50107 
L 351.107955 191.848809 
L 351.655763 190.519856 
L 352.203571 187.429733 
L 352.75138 190.292563 
L 353.299188 188.137884 
L 353.846996 189.545401 
L 354.394804 189.540206 
L 355.49042 191.659733 
L 356.038228 189.683571 
L 356.586036 191.103476 
L 357.133844 188.921908 
L 357.681652 189.727836 
L 358.22946 189.510251 
L 358.777268 188.33975 
L 359.325077 192.630719 
L 359.872885 191.212239 
L 360.420693 191.644579 
L 360.968501 190.800685 
L 361.516309 190.973541 
L 362.064117 190.193932 
L 363.159733 189.572681 
L 363.707541 190.332317 
L 364.255349 192.041822 
L 364.803157 192.411998 
L 365.350966 190.411082 
L 365.898774 192.043644 
L 366.446582 189.871567 
L 366.99439 190.855249 
L 367.542198 190.170434 
L 368.090006 191.12987 
L 368.637814 187.965915 
L 369.185622 191.777094 
L 369.73343 191.544984 
L 370.281238 191.102206 
L 370.829046 190.839806 
L 371.376854 191.798764 
L 371.924663 191.829031 
L 372.472471 188.812043 
L 373.020279 192.175034 
L 373.568087 188.537398 
L 374.115895 191.410621 
L 374.663703 193.212424 
L 375.211511 190.255077 
L 375.759319 191.998396 
L 376.307127 191.603104 
L 376.854935 189.051917 
L 377.402743 191.925148 
L 378.49836 190.658579 
L 379.046168 193.086118 
L 379.593976 189.812376 
L 380.141784 191.887329 
L 380.689592 191.657113 
L 381.2374 191.004058 
L 381.785208 190.923243 
L 382.880824 193.073328 
L 383.428632 191.556641 
L 383.97644 193.440056 
L 385.072057 191.127289 
L 385.619865 191.038281 
L 386.167673 192.623499 
L 386.715481 192.135084 
L 387.263289 190.104861 
L 387.811097 193.828114 
L 388.906713 190.696592 
L 389.454521 194.147995 
L 390.002329 192.173145 
L 390.550138 193.891115 
L 391.097946 192.866247 
L 391.645754 193.10265 
L 392.193562 194.31621 
L 392.74137 194.639604 
L 393.289178 193.199496 
L 393.836986 192.191241 
L 394.384794 191.742231 
L 394.932602 193.100426 
L 395.48041 192.511887 
L 396.028218 194.888954 
L 396.576026 191.808069 
L 397.123835 190.348343 
L 397.671643 193.589441 
L 398.219451 194.615596 
L 398.767259 193.435464 
L 399.315067 193.48504 
L 399.862875 192.018822 
L 400.410683 192.603322 
L 400.958491 193.646867 
L 401.506299 194.169508 
L 402.054107 196.07364 
L 402.601915 192.048881 
L 403.149724 194.15611 
L 403.697532 193.186604 
L 404.24534 195.708759 
L 404.793148 191.56772 
L 405.888764 194.157549 
L 406.436572 194.023075 
L 406.98438 190.219138 
L 407.532188 193.224706 
L 407.532188 193.224706 
" style="fill:none;stroke:#4c72b0;stroke-linecap:round;stroke-width:2.25;"/>
   </g>
   <g id="line2d_15">
    <path clip-path="url(#p739874be1d)" d="M 135.930169 -1 
L 136.367185 28.714844 
L 136.914993 29.599615 
L 137.462801 2.799979 
L 138.010609 43.139425 
L 138.558417 61.297837 
L 139.106226 67.036083 
L 139.654034 12.764795 
L 140.201842 73.134343 
L 140.74965 26.67275 
L 141.297458 80.761155 
L 141.845266 77.389292 
L 142.393074 79.344847 
L 142.940882 77.354443 
L 143.48869 81.290311 
L 144.036498 82.697702 
L 145.132115 92.798351 
L 145.679923 89.709965 
L 146.227731 87.653784 
L 146.775539 95.224032 
L 147.323347 91.003408 
L 147.871155 99.757949 
L 148.418963 101.149195 
L 148.966771 89.382069 
L 149.514579 99.894267 
L 150.062387 107.143985 
L 151.158003 107.182773 
L 151.705812 80.933478 
L 152.25362 111.752948 
L 152.801428 107.88236 
L 153.349236 109.14352 
L 153.897044 97.652747 
L 154.444852 104.497351 
L 154.99266 108.116568 
L 155.540468 98.697494 
L 156.088276 115.97744 
L 156.636084 99.149145 
L 157.183892 96.68904 
L 157.731701 100.177813 
L 158.279509 116.656771 
L 158.827317 117.170515 
L 159.375125 111.295932 
L 159.922933 99.119536 
L 160.470741 116.495907 
L 161.018549 89.890579 
L 161.566357 115.510126 
L 162.114165 115.362753 
L 162.661973 119.800314 
L 163.209781 110.929586 
L 163.757589 111.087187 
L 164.305398 108.375675 
L 164.853206 112.415626 
L 165.401014 112.930571 
L 165.948822 111.716552 
L 166.49663 122.841956 
L 167.044438 117.950786 
L 167.592246 123.286426 
L 168.140054 124.896427 
L 168.687862 114.624537 
L 169.23567 124.973446 
L 169.783478 127.31962 
L 170.331287 119.324547 
L 170.879095 115.645274 
L 171.426903 109.023329 
L 171.974711 125.372791 
L 172.522519 123.737083 
L 173.070327 122.694432 
L 173.618135 92.049711 
L 174.165943 122.608559 
L 174.713751 124.748353 
L 175.261559 117.628955 
L 175.809367 128.624296 
L 176.357175 121.24167 
L 176.904984 131.861235 
L 177.452792 127.312911 
L 178.0006 124.071757 
L 178.548408 113.973509 
L 179.096216 113.117406 
L 179.644024 123.323641 
L 180.191832 126.755088 
L 180.73964 118.666907 
L 181.287448 113.911447 
L 181.835256 128.883662 
L 182.383064 110.658858 
L 182.930873 133.070412 
L 183.478681 116.187704 
L 184.026489 128.262528 
L 184.574297 128.749369 
L 185.122105 124.946775 
L 185.669913 122.362853 
L 186.217721 129.032167 
L 186.765529 122.455784 
L 187.313337 133.374058 
L 187.861145 100.259548 
L 188.408953 122.74664 
L 188.956761 114.172852 
L 189.50457 123.750659 
L 190.052378 111.540622 
L 190.600186 131.907284 
L 191.147994 126.158941 
L 191.695802 130.578015 
L 192.24361 131.379975 
L 192.791418 124.409895 
L 193.339226 130.415334 
L 193.887034 131.387497 
L 194.434842 136.321382 
L 194.98265 126.142566 
L 195.530459 131.41057 
L 196.078267 133.644746 
L 196.626075 127.634231 
L 197.173883 119.999951 
L 198.269499 138.166659 
L 198.817307 134.036229 
L 199.365115 141.607986 
L 199.912923 131.223051 
L 200.460731 131.136704 
L 201.008539 137.035689 
L 201.556347 135.030661 
L 202.104156 139.894905 
L 202.651964 129.614125 
L 203.199772 123.07481 
L 203.74758 127.449208 
L 204.295388 128.417889 
L 204.843196 139.603129 
L 205.391004 133.076392 
L 205.938812 137.251736 
L 206.48662 131.913772 
L 207.582236 140.810098 
L 208.130045 134.883239 
L 209.225661 139.631057 
L 209.773469 134.899434 
L 210.321277 138.622777 
L 210.869085 136.066912 
L 211.416893 130.715934 
L 211.964701 132.479 
L 212.512509 130.582763 
L 213.060317 127.974772 
L 213.608125 137.851976 
L 214.155933 130.280842 
L 214.703742 133.530846 
L 215.25155 127.0549 
L 216.347166 135.484428 
L 216.894974 141.907117 
L 217.442782 132.695722 
L 217.99059 127.064807 
L 218.538398 137.638003 
L 219.086206 134.586609 
L 219.634014 139.168573 
L 220.181822 131.359777 
L 220.729631 136.742609 
L 221.277439 133.352781 
L 221.825247 133.515014 
L 222.373055 130.366142 
L 222.920863 135.50154 
L 223.468671 131.121185 
L 224.016479 141.110132 
L 224.564287 138.516132 
L 225.112095 137.315501 
L 225.659903 140.009731 
L 226.207711 131.630338 
L 226.755519 139.733519 
L 227.303328 128.192074 
L 227.851136 137.277795 
L 228.398944 134.042278 
L 228.946752 136.194413 
L 229.49456 143.772958 
L 230.042368 136.233353 
L 230.590176 139.987011 
L 231.137984 136.551408 
L 231.685792 138.267464 
L 232.2336 128.006851 
L 232.781408 128.037949 
L 233.329217 140.148629 
L 233.877025 140.63235 
L 234.424833 139.472886 
L 234.972641 140.045718 
L 235.520449 138.304006 
L 236.068257 130.352502 
L 236.616065 138.267692 
L 237.163873 139.646739 
L 237.711681 131.983168 
L 238.259489 135.559871 
L 238.807297 142.309114 
L 239.355106 138.753035 
L 240.450722 136.478444 
L 240.99853 139.576178 
L 241.546338 139.149461 
L 242.094146 143.52627 
L 242.641954 133.584217 
L 243.189762 139.89057 
L 243.73757 137.082702 
L 244.285378 130.334809 
L 244.833186 135.28763 
L 245.380994 134.545924 
L 245.928803 140.835594 
L 246.476611 141.371203 
L 247.024419 136.166947 
L 247.572227 142.590672 
L 248.120035 125.981392 
L 248.667843 134.452887 
L 249.215651 134.647835 
L 249.763459 142.552887 
L 250.311267 133.303567 
L 250.859075 135.759365 
L 251.406883 133.086223 
L 251.954692 142.356208 
L 252.5025 138.312234 
L 253.050308 137.738243 
L 253.598116 142.465783 
L 254.145924 143.761543 
L 254.693732 134.466505 
L 255.24154 131.120692 
L 255.789348 140.983517 
L 256.337156 142.565212 
L 257.432772 142.728419 
L 257.98058 140.894458 
L 258.528389 143.187631 
L 259.076197 131.672647 
L 259.624005 135.215035 
L 260.171813 142.388624 
L 260.719621 143.192924 
L 261.267429 139.986583 
L 261.815237 134.094972 
L 262.363045 145.186499 
L 262.910853 145.334011 
L 263.458661 141.668728 
L 264.006469 132.784961 
L 264.554278 136.30226 
L 265.102086 136.430043 
L 265.649894 139.321699 
L 266.197702 140.067912 
L 266.74551 142.862787 
L 267.293318 142.770106 
L 267.841126 135.746559 
L 268.388934 141.758722 
L 268.936742 138.379817 
L 269.48455 144.910835 
L 270.032358 143.19366 
L 270.580166 140.169062 
L 271.127975 129.071307 
L 271.675783 136.980413 
L 272.223591 141.518788 
L 272.771399 131.023404 
L 273.867015 140.906996 
L 274.414823 139.264823 
L 274.962631 141.626579 
L 275.510439 130.975707 
L 276.058247 137.675343 
L 276.606055 131.820423 
L 277.153864 136.070682 
L 277.701672 137.993814 
L 278.24948 128.382807 
L 278.797288 143.20728 
L 279.345096 136.322329 
L 279.892904 145.625694 
L 280.440712 135.199494 
L 280.98852 141.710465 
L 281.536328 140.206004 
L 282.084136 140.800174 
L 282.631944 141.19824 
L 283.179752 139.154194 
L 283.727561 143.593993 
L 284.275369 145.386004 
L 284.823177 141.818625 
L 285.370985 139.982528 
L 285.918793 140.529608 
L 286.466601 141.898089 
L 287.014409 136.14956 
L 287.562217 144.0463 
L 288.110025 140.889858 
L 288.657833 139.647768 
L 289.205641 141.822966 
L 289.75345 139.523529 
L 290.301258 141.361934 
L 290.849066 140.188824 
L 291.396874 139.379884 
L 291.944682 136.688977 
L 292.49249 138.189414 
L 293.040298 145.053414 
L 293.588106 140.095071 
L 294.135914 142.271109 
L 294.683722 133.805393 
L 295.23153 139.591965 
L 295.779338 140.894678 
L 296.327147 137.055601 
L 296.874955 134.942727 
L 297.422763 139.245318 
L 297.970571 142.437978 
L 298.518379 137.36413 
L 299.066187 143.339342 
L 299.613995 142.644612 
L 300.709611 138.467732 
L 301.257419 132.396997 
L 301.805227 142.329439 
L 302.353036 143.255462 
L 302.900844 142.5487 
L 303.448652 144.052333 
L 303.99646 139.738648 
L 304.544268 145.291615 
L 305.092076 138.476027 
L 305.639884 137.932733 
L 306.187692 143.087204 
L 306.7355 137.270253 
L 307.283308 136.739537 
L 307.831116 141.797085 
L 308.378924 143.658785 
L 308.926733 141.073598 
L 309.474541 142.578687 
L 310.022349 129.747688 
L 310.570157 137.807596 
L 311.117965 144.002192 
L 311.665773 136.713314 
L 312.213581 142.155111 
L 312.761389 139.954208 
L 313.309197 141.492108 
L 313.857005 140.631534 
L 314.404813 140.199579 
L 314.952622 144.478648 
L 316.048238 137.239835 
L 316.596046 140.298928 
L 317.143854 135.434767 
L 318.23947 139.328 
L 319.335086 141.25011 
L 319.882894 137.505967 
L 320.430702 137.569411 
L 320.97851 141.494453 
L 321.526319 141.259902 
L 322.074127 139.849211 
L 322.621935 137.89762 
L 323.169743 141.905336 
L 323.717551 137.086576 
L 324.813167 143.669447 
L 325.360975 135.896558 
L 325.908783 136.30056 
L 326.456591 138.715185 
L 327.004399 141.921774 
L 327.552208 142.01942 
L 328.100016 143.243615 
L 328.647824 143.449221 
L 329.195632 143.378707 
L 329.74344 144.619191 
L 330.291248 137.141907 
L 331.386864 142.286043 
L 331.934672 142.161712 
L 333.030288 144.464901 
L 333.578096 143.580372 
L 334.125905 143.228047 
L 334.673713 143.598466 
L 335.221521 136.628616 
L 335.769329 140.509301 
L 336.317137 141.72889 
L 337.412753 146.652915 
L 337.960561 147.87805 
L 338.508369 141.927241 
L 339.056177 146.029274 
L 339.603985 140.666379 
L 340.151794 140.773182 
L 340.699602 145.091934 
L 341.24741 141.137429 
L 341.795218 140.787119 
L 342.343026 144.494978 
L 342.890834 137.504723 
L 343.438642 140.631676 
L 343.98645 143.037192 
L 344.534258 144.173163 
L 345.082066 141.012146 
L 345.629874 144.650084 
L 346.177682 141.52401 
L 346.725491 135.018644 
L 347.273299 144.678629 
L 347.821107 145.664702 
L 348.368915 148.853764 
L 348.916723 145.505706 
L 349.464531 143.719956 
L 350.012339 141.226305 
L 350.560147 139.961339 
L 351.107955 144.281961 
L 351.655763 145.114278 
L 352.203571 143.428364 
L 352.75138 145.962812 
L 353.299188 143.028865 
L 353.846996 144.40799 
L 354.394804 143.205481 
L 354.942612 141.115045 
L 355.49042 143.036252 
L 356.038228 143.034263 
L 356.586036 142.225136 
L 357.133844 144.941409 
L 357.681652 141.77863 
L 358.22946 145.231189 
L 359.325077 134.283875 
L 359.872885 130.469067 
L 360.420693 142.847199 
L 360.968501 139.206939 
L 361.516309 147.574343 
L 362.611925 139.418443 
L 363.707541 144.189073 
L 364.255349 143.811853 
L 364.803157 143.894379 
L 365.350966 146.433144 
L 365.898774 141.711533 
L 366.446582 144.777907 
L 366.99439 142.208615 
L 367.542198 144.453151 
L 368.090006 144.017892 
L 368.637814 144.668644 
L 369.185622 141.549832 
L 369.73343 142.7404 
L 370.281238 142.196904 
L 370.829046 143.762112 
L 371.376854 138.375964 
L 371.924663 140.729903 
L 372.472471 138.342537 
L 373.020279 132.36991 
L 373.568087 139.055654 
L 374.115895 142.488002 
L 374.663703 143.35427 
L 375.211511 143.377605 
L 375.759319 141.570975 
L 376.307127 144.200774 
L 376.854935 143.046678 
L 377.402743 145.119405 
L 377.950552 144.069301 
L 378.49836 144.378203 
L 379.046168 144.497898 
L 379.593976 142.095519 
L 380.141784 145.927151 
L 380.689592 139.67772 
L 381.2374 139.759071 
L 381.785208 141.762732 
L 382.333016 144.953768 
L 382.880824 138.906552 
L 383.428632 143.358556 
L 383.97644 143.732154 
L 384.524249 140.572885 
L 385.072057 136.560577 
L 385.619865 147.597464 
L 386.167673 143.266677 
L 386.715481 145.288247 
L 387.263289 147.935092 
L 387.811097 140.302047 
L 388.358905 147.833088 
L 388.906713 139.965823 
L 389.454521 145.969452 
L 390.002329 144.220061 
L 390.550138 140.409111 
L 391.097946 144.692535 
L 391.645754 144.368574 
L 392.193562 138.171312 
L 392.74137 141.689716 
L 393.289178 139.297266 
L 393.836986 142.701775 
L 394.384794 142.973778 
L 394.932602 134.981258 
L 395.48041 143.794217 
L 396.028218 142.860926 
L 396.576026 145.542388 
L 397.123835 145.515569 
L 397.671643 144.011231 
L 398.767259 143.738994 
L 399.315067 142.911312 
L 399.862875 141.198231 
L 400.410683 140.551376 
L 400.958491 144.492491 
L 401.506299 142.793469 
L 402.054107 145.305346 
L 402.601915 143.02873 
L 403.149724 145.548642 
L 403.697532 144.717707 
L 404.24534 145.802995 
L 405.340956 144.303169 
L 405.888764 144.69908 
L 406.436572 144.51867 
L 406.98438 144.835773 
L 407.532188 144.997143 
L 407.532188 144.997143 
" style="fill:none;stroke:#dd8452;stroke-linecap:round;stroke-width:2.25;"/>
   </g>
   <g id="line2d_16">
    <path clip-path="url(#p739874be1d)" d="M 120.508141 124.474867 
L 421.2 124.474867 
" style="fill:none;stroke:#666666;stroke-dasharray:8.325,3.6;stroke-dashoffset:0;stroke-width:2.25;"/>
   </g>
   <g id="patch_3">
    <path d="M 120.508141 227.7 
L 120.508141 21.249734 
" style="fill:none;stroke:#262626;stroke-linecap:square;stroke-linejoin:miter;stroke-width:1.875;"/>
   </g>
   <g id="patch_4">
    <path d="M 421.2 227.7 
L 421.2 21.249734 
" style="fill:none;stroke:#262626;stroke-linecap:square;stroke-linejoin:miter;stroke-width:1.875;"/>
   </g>
   <g id="patch_5">
    <path d="M 120.508141 227.7 
L 421.2 227.7 
" style="fill:none;stroke:#262626;stroke-linecap:square;stroke-linejoin:miter;stroke-width:1.875;"/>
   </g>
   <g id="patch_6">
    <path d="M 120.508141 21.249734 
L 421.2 21.249734 
" style="fill:none;stroke:#262626;stroke-linecap:square;stroke-linejoin:miter;stroke-width:1.875;"/>
   </g>
   <g id="legend_1">
    <g id="line2d_17">
     <path d="M 254.975391 42.135125 
L 287.975391 42.135125 
" style="fill:none;stroke:#4c72b0;stroke-linecap:round;stroke-width:2.25;"/>
    </g>
    <g id="line2d_18"/>
    <g id="text_12">
     <!-- Training loss -->
     <g style="fill:#262626;" transform="translate(301.175391 47.910125)scale(0.165 -0.165)">
      <use xlink:href="#ArialMT-84"/>
      <use x="57.333984" xlink:href="#ArialMT-114"/>
      <use x="90.634766" xlink:href="#ArialMT-97"/>
      <use x="146.25" xlink:href="#ArialMT-105"/>
      <use x="168.466797" xlink:href="#ArialMT-110"/>
      <use x="224.082031" xlink:href="#ArialMT-105"/>
      <use x="246.298828" xlink:href="#ArialMT-110"/>
      <use x="301.914062" xlink:href="#ArialMT-103"/>
      <use x="357.529297" xlink:href="#ArialMT-32"/>
      <use x="385.3125" xlink:href="#ArialMT-108"/>
      <use x="407.529297" xlink:href="#ArialMT-111"/>
      <use x="463.144531" xlink:href="#ArialMT-115"/>
      <use x="513.144531" xlink:href="#ArialMT-115"/>
     </g>
    </g>
    <g id="line2d_19">
     <path d="M 254.975391 65.66825 
L 287.975391 65.66825 
" style="fill:none;stroke:#dd8452;stroke-linecap:round;stroke-width:2.25;"/>
    </g>
    <g id="line2d_20"/>
    <g id="text_13">
     <!-- Validation loss -->
     <defs>
      <path d="M 28.171875 0 
L 0.4375 71.578125 
L 10.6875 71.578125 
L 29.296875 19.578125 
Q 31.546875 13.328125 33.0625 7.859375 
Q 34.71875 13.71875 36.921875 19.578125 
L 56.25 71.578125 
L 65.921875 71.578125 
L 37.890625 0 
z
" id="ArialMT-86"/>
      <path d="M 40.234375 0 
L 40.234375 6.546875 
Q 35.296875 -1.171875 25.734375 -1.171875 
Q 19.53125 -1.171875 14.328125 2.25 
Q 9.125 5.671875 6.265625 11.796875 
Q 3.421875 17.921875 3.421875 25.875 
Q 3.421875 33.640625 6 39.96875 
Q 8.59375 46.296875 13.765625 49.65625 
Q 18.953125 53.03125 25.34375 53.03125 
Q 30.03125 53.03125 33.6875 51.046875 
Q 37.359375 49.078125 39.65625 45.90625 
L 39.65625 71.578125 
L 48.390625 71.578125 
L 48.390625 0 
z
M 12.453125 25.875 
Q 12.453125 15.921875 16.640625 10.984375 
Q 20.84375 6.0625 26.5625 6.0625 
Q 32.328125 6.0625 36.34375 10.765625 
Q 40.375 15.484375 40.375 25.140625 
Q 40.375 35.796875 36.265625 40.765625 
Q 32.171875 45.75 26.171875 45.75 
Q 20.3125 45.75 16.375 40.96875 
Q 12.453125 36.1875 12.453125 25.875 
z
" id="ArialMT-100"/>
     </defs>
     <g style="fill:#262626;" transform="translate(301.175391 71.44325)scale(0.165 -0.165)">
      <use xlink:href="#ArialMT-86"/>
      <use x="59.324219" xlink:href="#ArialMT-97"/>
      <use x="114.939453" xlink:href="#ArialMT-108"/>
      <use x="137.15625" xlink:href="#ArialMT-105"/>
      <use x="159.373047" xlink:href="#ArialMT-100"/>
      <use x="214.988281" xlink:href="#ArialMT-97"/>
      <use x="270.603516" xlink:href="#ArialMT-116"/>
      <use x="298.386719" xlink:href="#ArialMT-105"/>
      <use x="320.603516" xlink:href="#ArialMT-111"/>
      <use x="376.21875" xlink:href="#ArialMT-110"/>
      <use x="431.833984" xlink:href="#ArialMT-32"/>
      <use x="459.617188" xlink:href="#ArialMT-108"/>
      <use x="481.833984" xlink:href="#ArialMT-111"/>
      <use x="537.449219" xlink:href="#ArialMT-115"/>
      <use x="587.449219" xlink:href="#ArialMT-115"/>
     </g>
    </g>
   </g>
  </g>
 </g>
 <defs>
  <clipPath id="p739874be1d">
   <rect height="206.450266" width="300.691859" x="120.508141" y="21.249734"/>
  </clipPath>
 </defs>
</svg>
